<svg width="85" height="24" viewBox="0 0 85 24" fill="none" xmlns="http://www.w3.org/2000/svg">
<g clip-path="url(#clip0_785_86378)">
<path d="M0 23.9702V0.25017H23.6V23.9702H0ZM4.86 3.95017V20.9702L19.65 12.2702L4.86 3.95017ZM31.54 23.7202H27.47V13.1502H31.57C34.6 13.1502 36.43 15.5502 36.43 18.6102C36.43 21.6702 34.81 23.7202 31.55 23.7202H31.54ZM35.16 10.7502L34.35 8.40017H30.46L29.75 10.7502H27.63L31.18 0.15017H33.33L37.33 10.7502H35.16ZM31.37 14.9502H29.7V22.0802H31.5C33.88 22.0802 34.23 20.0602 34.21 18.5102C34.21 17.3002 33.63 14.9402 31.38 14.9402L31.37 14.9502ZM33.62 6.28017L32.28 2.39017L31.09 6.26017L31.01 6.92017H33.64C33.64 6.57017 33.67 6.49017 33.61 6.29017L33.62 6.28017ZM37.19 23.7302V13.1502H44.98V14.9202H39.32V17.1702H44.33V19.0902H39.35V21.9202H45.17V23.7202H37.2L37.19 23.7302ZM44.52 10.7602L39.87 3.60017V10.7602H37.75V0.15017H39.92L44.4 7.21017V0.15017H46.52V10.7502H44.52V10.7602ZM51.17 23.7102H49.15L45.66 13.7202V13.1602H47.78L50.16 20.9002L52.49 13.1902H54.56V13.7502L51.17 23.7102ZM54.53 10.7602L53.72 8.41017H49.83L49.12 10.7602H47L50.55 0.15017H52.7L56.7 10.7502H54.53V10.7602ZM53.01 6.33017L51.67 2.33017L50.33 6.33017V6.91017H53.06C53.06 6.56017 53.06 6.51017 53.01 6.33017ZM55.21 23.7002V13.1802H57.46V23.7002H55.21ZM57.16 10.7502V0.15017H59.26V8.95017H63.99V10.7502H57.16ZM63.05 23.9802C57.26 24.1102 56.25 12.9302 63.08 13.0002C66.87 13.0002 67.53 16.1602 67.68 16.6402H65.58C65.25 15.9802 64.39 14.7202 63.33 14.6402C59.59 14.3902 59.59 22.3002 63.33 22.3002C65.13 22.3002 65.56 20.5002 65.66 20.3002H67.71C67.71 20.3002 67.46 23.9202 63.06 23.9702L63.05 23.9802ZM68.87 10.9302C62.06 10.9302 62.31 -0.0498298 68.94 0.000170248C75.34 0.0501703 75.52 10.9302 68.86 10.9302H68.87ZM68.79 9.16017C72.71 9.19017 72.71 1.85017 68.87 1.80017C65.05 1.77017 64.92 9.13017 68.79 9.16017ZM68.08 23.7302V13.1502H75.59V15.0702H70.1V17.2402H74.96V19.1402H70.13V21.9202H75.85V23.7202H68.09L68.08 23.7302ZM82.34 10.5002V9.49017C82.11 9.69017 81.1 10.9802 79.2 10.9302C72.73 10.7802 72.7 0.16017 79.5 0.0301702C81.14 0.0301702 82.51 1.07017 83.04 1.80017C83.67 2.63017 83.72 3.34017 83.75 3.52017H81.95C81.55 2.86017 80.91 1.75017 79.42 1.75017C75.47 1.70017 75.22 9.16017 79.39 9.24017C81.24 9.29017 82.17 7.37017 82.17 7.34017V6.78017H79.64V5.14017H83.99V10.5002H82.32H82.34ZM80.37 24.0002C75.89 24.0002 75.94 20.5602 75.94 20.5602H77.96C77.96 20.5602 77.81 22.2302 80.06 22.3802C80.62 22.4102 82.44 22.1802 82.44 20.9102C82.44 19.4402 80.59 19.5202 79.43 19.1902C78.27 18.8902 76.07 18.3802 76.07 16.3302C76.07 14.5302 77.54 12.9902 80.37 12.9902C84.16 13.0202 84.14 15.9502 84.16 16.1302H82.21C82.08 15.7002 81.96 14.6602 80.26 14.6102C79.43 14.6102 78.16 14.8902 78.16 15.8702C78.16 17.1102 79.58 17.2902 81.07 17.5102C83.32 17.9402 84.61 18.6202 84.53 20.7002C84.48 22.5202 82.86 23.9902 80.36 23.9902L80.37 24.0002Z" fill="#0067B9"/>
</g>
<defs>
<clipPath id="clip0_785_86378">
<rect width="85" height="24" fill="white"/>
</clipPath>
</defs>
</svg>
