<?xml version="1.0" encoding="UTF-8"?>
<svg xmlns="http://www.w3.org/2000/svg" width="1415" height="2276" viewBox="0 0 1415 2276" role="img" aria-label="Emulation XML tree diagram">
<style>
.bg { fill: #f7fafc; }
.edge { stroke: #7a8aa1; stroke-width: 1.4; fill: none; }
.node { stroke-width: 1.1; rx: 10; ry: 10; }
.node-context { fill: #d7e9ff; stroke: #457b9d; }
.node-device { fill: #d9f3e4; stroke: #2d6a4f; }
.node-channel { fill: #fff1cf; stroke: #b08900; }
.node-summary { fill: #efe8ff; stroke: #6c4dbf; }
.node-error { fill: #ffd7d7; stroke: #b3261e; }
.title { font: 700 13px "DejaVu Sans", "Arial", sans-serif; fill: #1f2a37; }
.subtitle { font: 12px "DejaVu Sans Mono", "Consolas", monospace; fill: #3d4b60; }
.legend-title { font: 700 12px "DejaVu Sans", "Arial", sans-serif; fill: #1f2a37; }
.legend-text { font: 11px "DejaVu Sans", "Arial", sans-serif; fill: #3d4b60; }
</style>
<rect class="bg" x="0" y="0" width="1415" height="2276"/>
<path class="edge" d="M 265.0 1138.0 C 287.5 1138.0, 287.5 58.0, 310.0 58.0"/>
<path class="edge" d="M 265.0 1138.0 C 287.5 1138.0, 287.5 350.5, 310.0 350.5"/>
<path class="edge" d="M 545.0 350.5 C 567.5 350.5, 567.5 193.0, 590.0 193.0"/>
<path class="edge" d="M 825.0 193.0 C 847.5 193.0, 847.5 148.0, 870.0 148.0"/>
<path class="edge" d="M 825.0 193.0 C 847.5 193.0, 847.5 238.0, 870.0 238.0"/>
<path class="edge" d="M 545.0 350.5 C 567.5 350.5, 567.5 328.0, 590.0 328.0"/>
<path class="edge" d="M 545.0 350.5 C 567.5 350.5, 567.5 418.0, 590.0 418.0"/>
<path class="edge" d="M 545.0 350.5 C 567.5 350.5, 567.5 508.0, 590.0 508.0"/>
<path class="edge" d="M 265.0 1138.0 C 287.5 1138.0, 287.5 958.0, 310.0 958.0"/>
<path class="edge" d="M 545.0 958.0 C 567.5 958.0, 567.5 598.0, 590.0 598.0"/>
<path class="edge" d="M 825.0 598.0 C 847.5 598.0, 847.5 598.0, 870.0 598.0"/>
<path class="edge" d="M 545.0 958.0 C 567.5 958.0, 567.5 688.0, 590.0 688.0"/>
<path class="edge" d="M 825.0 688.0 C 847.5 688.0, 847.5 688.0, 870.0 688.0"/>
<path class="edge" d="M 545.0 958.0 C 567.5 958.0, 567.5 778.0, 590.0 778.0"/>
<path class="edge" d="M 825.0 778.0 C 847.5 778.0, 847.5 778.0, 870.0 778.0"/>
<path class="edge" d="M 545.0 958.0 C 567.5 958.0, 567.5 868.0, 590.0 868.0"/>
<path class="edge" d="M 825.0 868.0 C 847.5 868.0, 847.5 868.0, 870.0 868.0"/>
<path class="edge" d="M 545.0 958.0 C 567.5 958.0, 567.5 958.0, 590.0 958.0"/>
<path class="edge" d="M 825.0 958.0 C 847.5 958.0, 847.5 958.0, 870.0 958.0"/>
<path class="edge" d="M 545.0 958.0 C 567.5 958.0, 567.5 1048.0, 590.0 1048.0"/>
<path class="edge" d="M 825.0 1048.0 C 847.5 1048.0, 847.5 1048.0, 870.0 1048.0"/>
<path class="edge" d="M 545.0 958.0 C 567.5 958.0, 567.5 1138.0, 590.0 1138.0"/>
<path class="edge" d="M 825.0 1138.0 C 847.5 1138.0, 847.5 1138.0, 870.0 1138.0"/>
<path class="edge" d="M 545.0 958.0 C 567.5 958.0, 567.5 1228.0, 590.0 1228.0"/>
<path class="edge" d="M 825.0 1228.0 C 847.5 1228.0, 847.5 1228.0, 870.0 1228.0"/>
<path class="edge" d="M 545.0 958.0 C 567.5 958.0, 567.5 1318.0, 590.0 1318.0"/>
<path class="edge" d="M 265.0 1138.0 C 287.5 1138.0, 287.5 1723.0, 310.0 1723.0"/>
<path class="edge" d="M 545.0 1723.0 C 567.5 1723.0, 567.5 1408.0, 590.0 1408.0"/>
<path class="edge" d="M 825.0 1408.0 C 847.5 1408.0, 847.5 1408.0, 870.0 1408.0"/>
<path class="edge" d="M 545.0 1723.0 C 567.5 1723.0, 567.5 1498.0, 590.0 1498.0"/>
<path class="edge" d="M 825.0 1498.0 C 847.5 1498.0, 847.5 1498.0, 870.0 1498.0"/>
<path class="edge" d="M 545.0 1723.0 C 567.5 1723.0, 567.5 1588.0, 590.0 1588.0"/>
<path class="edge" d="M 825.0 1588.0 C 847.5 1588.0, 847.5 1588.0, 870.0 1588.0"/>
<path class="edge" d="M 545.0 1723.0 C 567.5 1723.0, 567.5 1678.0, 590.0 1678.0"/>
<path class="edge" d="M 825.0 1678.0 C 847.5 1678.0, 847.5 1678.0, 870.0 1678.0"/>
<path class="edge" d="M 545.0 1723.0 C 567.5 1723.0, 567.5 1768.0, 590.0 1768.0"/>
<path class="edge" d="M 825.0 1768.0 C 847.5 1768.0, 847.5 1768.0, 870.0 1768.0"/>
<path class="edge" d="M 545.0 1723.0 C 567.5 1723.0, 567.5 1858.0, 590.0 1858.0"/>
<path class="edge" d="M 825.0 1858.0 C 847.5 1858.0, 847.5 1858.0, 870.0 1858.0"/>
<path class="edge" d="M 545.0 1723.0 C 567.5 1723.0, 567.5 1948.0, 590.0 1948.0"/>
<path class="edge" d="M 825.0 1948.0 C 847.5 1948.0, 847.5 1948.0, 870.0 1948.0"/>
<path class="edge" d="M 545.0 1723.0 C 567.5 1723.0, 567.5 2038.0, 590.0 2038.0"/>
<path class="edge" d="M 825.0 2038.0 C 847.5 2038.0, 847.5 2038.0, 870.0 2038.0"/>
<path class="edge" d="M 265.0 1138.0 C 287.5 1138.0, 287.5 2128.0, 310.0 2128.0"/>
<path class="edge" d="M 545.0 2128.0 C 567.5 2128.0, 567.5 2128.0, 590.0 2128.0"/>
<path class="edge" d="M 825.0 2128.0 C 847.5 2128.0, 847.5 2128.0, 870.0 2128.0"/>
<path class="edge" d="M 265.0 1138.0 C 287.5 1138.0, 287.5 2218.0, 310.0 2218.0"/>
<path class="edge" d="M 545.0 2218.0 C 567.5 2218.0, 567.5 2218.0, 590.0 2218.0"/>
<rect class="node node-context" x="30.0" y="1110.0" width="235.0" height="56.0"/>
<text class="title" x="42.0" y="1132.0">Context</text>
<text class="subtitle" x="42.0" y="1151.0">network | 192.168.86.25 Linux analog 4....</text>
<rect class="node node-summary" x="310.0" y="30.0" width="235.0" height="56.0"/>
<text class="title" x="322.0" y="52.0">Context Attributes</text>
<text class="subtitle" x="322.0" y="71.0">3 entries</text>
<rect class="node node-device" x="310.0" y="322.5" width="235.0" height="56.0"/>
<text class="title" x="322.0" y="344.5">Device</text>
<text class="subtitle" x="322.0" y="363.5">iio:device0 | ad7768-1</text>
<rect class="node node-channel" x="590.0" y="165.0" width="235.0" height="56.0"/>
<text class="title" x="602.0" y="187.0">Channel</text>
<text class="subtitle" x="602.0" y="206.0">voltage0 | input</text>
<rect class="node node-summary" x="870.0" y="120.0" width="235.0" height="56.0"/>
<text class="title" x="882.0" y="142.0">Attributes</text>
<text class="subtitle" x="882.0" y="161.0">2 entries</text>
<rect class="node node-summary" x="870.0" y="210.0" width="235.0" height="56.0"/>
<text class="title" x="882.0" y="232.0">Scan Elements</text>
<text class="subtitle" x="882.0" y="251.0">1 entry</text>
<rect class="node node-summary" x="590.0" y="300.0" width="235.0" height="56.0"/>
<text class="title" x="602.0" y="322.0">Attributes</text>
<text class="subtitle" x="602.0" y="341.0">4 entries</text>
<rect class="node node-summary" x="590.0" y="390.0" width="235.0" height="56.0"/>
<text class="title" x="602.0" y="412.0">Debug Attributes</text>
<text class="subtitle" x="602.0" y="431.0">1 entry</text>
<rect class="node node-summary" x="590.0" y="480.0" width="235.0" height="56.0"/>
<text class="title" x="602.0" y="502.0">Buffer Attributes</text>
<text class="subtitle" x="602.0" y="521.0">3 entries</text>
<rect class="node node-device" x="310.0" y="930.0" width="235.0" height="56.0"/>
<text class="title" x="322.0" y="952.0">Device</text>
<text class="subtitle" x="322.0" y="971.0">iio:device1 | ltc2308</text>
<rect class="node node-channel" x="590.0" y="570.0" width="235.0" height="56.0"/>
<text class="title" x="602.0" y="592.0">Channel</text>
<text class="subtitle" x="602.0" y="611.0">voltage0 | input</text>
<rect class="node node-summary" x="870.0" y="570.0" width="235.0" height="56.0"/>
<text class="title" x="882.0" y="592.0">Attributes</text>
<text class="subtitle" x="882.0" y="611.0">2 entries</text>
<rect class="node node-channel" x="590.0" y="660.0" width="235.0" height="56.0"/>
<text class="title" x="602.0" y="682.0">Channel</text>
<text class="subtitle" x="602.0" y="701.0">voltage1 | input</text>
<rect class="node node-summary" x="870.0" y="660.0" width="235.0" height="56.0"/>
<text class="title" x="882.0" y="682.0">Attributes</text>
<text class="subtitle" x="882.0" y="701.0">2 entries</text>
<rect class="node node-channel" x="590.0" y="750.0" width="235.0" height="56.0"/>
<text class="title" x="602.0" y="772.0">Channel</text>
<text class="subtitle" x="602.0" y="791.0">voltage2 | input</text>
<rect class="node node-summary" x="870.0" y="750.0" width="235.0" height="56.0"/>
<text class="title" x="882.0" y="772.0">Attributes</text>
<text class="subtitle" x="882.0" y="791.0">2 entries</text>
<rect class="node node-channel" x="590.0" y="840.0" width="235.0" height="56.0"/>
<text class="title" x="602.0" y="862.0">Channel</text>
<text class="subtitle" x="602.0" y="881.0">voltage3 | input</text>
<rect class="node node-summary" x="870.0" y="840.0" width="235.0" height="56.0"/>
<text class="title" x="882.0" y="862.0">Attributes</text>
<text class="subtitle" x="882.0" y="881.0">2 entries</text>
<rect class="node node-channel" x="590.0" y="930.0" width="235.0" height="56.0"/>
<text class="title" x="602.0" y="952.0">Channel</text>
<text class="subtitle" x="602.0" y="971.0">voltage4 | input</text>
<rect class="node node-summary" x="870.0" y="930.0" width="235.0" height="56.0"/>
<text class="title" x="882.0" y="952.0">Attributes</text>
<text class="subtitle" x="882.0" y="971.0">2 entries</text>
<rect class="node node-channel" x="590.0" y="1020.0" width="235.0" height="56.0"/>
<text class="title" x="602.0" y="1042.0">Channel</text>
<text class="subtitle" x="602.0" y="1061.0">voltage5 | input</text>
<rect class="node node-summary" x="870.0" y="1020.0" width="235.0" height="56.0"/>
<text class="title" x="882.0" y="1042.0">Attributes</text>
<text class="subtitle" x="882.0" y="1061.0">2 entries</text>
<rect class="node node-channel" x="590.0" y="1110.0" width="235.0" height="56.0"/>
<text class="title" x="602.0" y="1132.0">Channel</text>
<text class="subtitle" x="602.0" y="1151.0">voltage6 | input</text>
<rect class="node node-summary" x="870.0" y="1110.0" width="235.0" height="56.0"/>
<text class="title" x="882.0" y="1132.0">Attributes</text>
<text class="subtitle" x="882.0" y="1151.0">2 entries</text>
<rect class="node node-channel" x="590.0" y="1200.0" width="235.0" height="56.0"/>
<text class="title" x="602.0" y="1222.0">Channel</text>
<text class="subtitle" x="602.0" y="1241.0">voltage7 | input</text>
<rect class="node node-summary" x="870.0" y="1200.0" width="235.0" height="56.0"/>
<text class="title" x="882.0" y="1222.0">Attributes</text>
<text class="subtitle" x="882.0" y="1241.0">2 entries</text>
<rect class="node node-summary" x="590.0" y="1290.0" width="235.0" height="56.0"/>
<text class="title" x="602.0" y="1312.0">Attributes</text>
<text class="subtitle" x="602.0" y="1331.0">2 entries</text>
<rect class="node node-device" x="310.0" y="1695.0" width="235.0" height="56.0"/>
<text class="title" x="322.0" y="1717.0">Device</text>
<text class="subtitle" x="322.0" y="1736.0">iio:device2 | one-bit-adc-dac</text>
<rect class="node node-channel" x="590.0" y="1380.0" width="235.0" height="56.0"/>
<text class="title" x="602.0" y="1402.0">Channel</text>
<text class="subtitle" x="602.0" y="1421.0">voltage0 | input</text>
<rect class="node node-summary" x="870.0" y="1380.0" width="235.0" height="56.0"/>
<text class="title" x="882.0" y="1402.0">Attributes</text>
<text class="subtitle" x="882.0" y="1421.0">2 entries</text>
<rect class="node node-channel" x="590.0" y="1470.0" width="235.0" height="56.0"/>
<text class="title" x="602.0" y="1492.0">Channel</text>
<text class="subtitle" x="602.0" y="1511.0">voltage0 | output</text>
<rect class="node node-summary" x="870.0" y="1470.0" width="235.0" height="56.0"/>
<text class="title" x="882.0" y="1492.0">Attributes</text>
<text class="subtitle" x="882.0" y="1511.0">2 entries</text>
<rect class="node node-channel" x="590.0" y="1560.0" width="235.0" height="56.0"/>
<text class="title" x="602.0" y="1582.0">Channel</text>
<text class="subtitle" x="602.0" y="1601.0">voltage1 | output</text>
<rect class="node node-summary" x="870.0" y="1560.0" width="235.0" height="56.0"/>
<text class="title" x="882.0" y="1582.0">Attributes</text>
<text class="subtitle" x="882.0" y="1601.0">2 entries</text>
<rect class="node node-channel" x="590.0" y="1650.0" width="235.0" height="56.0"/>
<text class="title" x="602.0" y="1672.0">Channel</text>
<text class="subtitle" x="602.0" y="1691.0">voltage2 | output</text>
<rect class="node node-summary" x="870.0" y="1650.0" width="235.0" height="56.0"/>
<text class="title" x="882.0" y="1672.0">Attributes</text>
<text class="subtitle" x="882.0" y="1691.0">2 entries</text>
<rect class="node node-channel" x="590.0" y="1740.0" width="235.0" height="56.0"/>
<text class="title" x="602.0" y="1762.0">Channel</text>
<text class="subtitle" x="602.0" y="1781.0">voltage3 | output</text>
<rect class="node node-summary" x="870.0" y="1740.0" width="235.0" height="56.0"/>
<text class="title" x="882.0" y="1762.0">Attributes</text>
<text class="subtitle" x="882.0" y="1781.0">2 entries</text>
<rect class="node node-channel" x="590.0" y="1830.0" width="235.0" height="56.0"/>
<text class="title" x="602.0" y="1852.0">Channel</text>
<text class="subtitle" x="602.0" y="1871.0">voltage4 | output</text>
<rect class="node node-summary" x="870.0" y="1830.0" width="235.0" height="56.0"/>
<text class="title" x="882.0" y="1852.0">Attributes</text>
<text class="subtitle" x="882.0" y="1871.0">2 entries</text>
<rect class="node node-channel" x="590.0" y="1920.0" width="235.0" height="56.0"/>
<text class="title" x="602.0" y="1942.0">Channel</text>
<text class="subtitle" x="602.0" y="1961.0">voltage5 | output</text>
<rect class="node node-summary" x="870.0" y="1920.0" width="235.0" height="56.0"/>
<text class="title" x="882.0" y="1942.0">Attributes</text>
<text class="subtitle" x="882.0" y="1961.0">2 entries</text>
<rect class="node node-channel" x="590.0" y="2010.0" width="235.0" height="56.0"/>
<text class="title" x="602.0" y="2032.0">Channel</text>
<text class="subtitle" x="602.0" y="2051.0">voltage6 | output</text>
<rect class="node node-summary" x="870.0" y="2010.0" width="235.0" height="56.0"/>
<text class="title" x="882.0" y="2032.0">Attributes</text>
<text class="subtitle" x="882.0" y="2051.0">2 entries</text>
<rect class="node node-device" x="310.0" y="2100.0" width="235.0" height="56.0"/>
<text class="title" x="322.0" y="2122.0">Device</text>
<text class="subtitle" x="322.0" y="2141.0">iio:device3 | ltc2606</text>
<rect class="node node-channel" x="590.0" y="2100.0" width="235.0" height="56.0"/>
<text class="title" x="602.0" y="2122.0">Channel</text>
<text class="subtitle" x="602.0" y="2141.0">voltage0 | output</text>
<rect class="node node-summary" x="870.0" y="2100.0" width="235.0" height="56.0"/>
<text class="title" x="882.0" y="2122.0">Attributes</text>
<text class="subtitle" x="882.0" y="2141.0">5 entries</text>
<rect class="node node-device" x="310.0" y="2190.0" width="235.0" height="56.0"/>
<text class="title" x="322.0" y="2212.0">Device</text>
<text class="subtitle" x="322.0" y="2231.0">iio_sysfs_trigger</text>
<rect class="node node-summary" x="590.0" y="2190.0" width="235.0" height="56.0"/>
<text class="title" x="602.0" y="2212.0">Attributes</text>
<text class="subtitle" x="602.0" y="2231.0">2 entries</text>
<rect x="1160" y="16" width="230" height="92" fill="#ffffff" stroke="#c6cfdb" rx="8" ry="8"/>
<text class="legend-title" x="1172" y="36">Node Types</text>
<rect class="node node-context" x="1172" y="41" width="14" height="10" rx="2" ry="2"/>
<text class="legend-text" x="1192" y="50">Context</text>
<rect class="node node-device" x="1172" y="55" width="14" height="10" rx="2" ry="2"/>
<text class="legend-text" x="1192" y="64">Device</text>
<rect class="node node-channel" x="1172" y="69" width="14" height="10" rx="2" ry="2"/>
<text class="legend-text" x="1192" y="78">Channel</text>
<rect class="node node-summary" x="1172" y="83" width="14" height="10" rx="2" ry="2"/>
<text class="legend-text" x="1192" y="92">Grouped Attributes</text>
</svg>