<?xml version="1.0" encoding="UTF-8"?>
<svg xmlns="http://www.w3.org/2000/svg" width="1415" height="5246" viewBox="0 0 1415 5246" role="img" aria-label="Emulation XML tree diagram">
<style>
.bg { fill: #f7fafc; }
.edge { stroke: #7a8aa1; stroke-width: 1.4; fill: none; }
.node { stroke-width: 1.1; rx: 10; ry: 10; }
.node-context { fill: #d7e9ff; stroke: #457b9d; }
.node-device { fill: #d9f3e4; stroke: #2d6a4f; }
.node-channel { fill: #fff1cf; stroke: #b08900; }
.node-summary { fill: #efe8ff; stroke: #6c4dbf; }
.node-error { fill: #ffd7d7; stroke: #b3261e; }
.title { font: 700 13px "DejaVu Sans", "Arial", sans-serif; fill: #1f2a37; }
.subtitle { font: 12px "DejaVu Sans Mono", "Consolas", monospace; fill: #3d4b60; }
.legend-title { font: 700 12px "DejaVu Sans", "Arial", sans-serif; fill: #1f2a37; }
.legend-text { font: 11px "DejaVu Sans", "Arial", sans-serif; fill: #3d4b60; }
</style>
<rect class="bg" x="0" y="0" width="1415" height="5246"/>
<path class="edge" d="M 265.0 2623.0 C 287.5 2623.0, 287.5 58.0, 310.0 58.0"/>
<path class="edge" d="M 265.0 2623.0 C 287.5 2623.0, 287.5 283.0, 310.0 283.0"/>
<path class="edge" d="M 545.0 283.0 C 567.5 283.0, 567.5 148.0, 590.0 148.0"/>
<path class="edge" d="M 825.0 148.0 C 847.5 148.0, 847.5 148.0, 870.0 148.0"/>
<path class="edge" d="M 545.0 283.0 C 567.5 283.0, 567.5 238.0, 590.0 238.0"/>
<path class="edge" d="M 825.0 238.0 C 847.5 238.0, 847.5 238.0, 870.0 238.0"/>
<path class="edge" d="M 545.0 283.0 C 567.5 283.0, 567.5 328.0, 590.0 328.0"/>
<path class="edge" d="M 825.0 328.0 C 847.5 328.0, 847.5 328.0, 870.0 328.0"/>
<path class="edge" d="M 545.0 283.0 C 567.5 283.0, 567.5 418.0, 590.0 418.0"/>
<path class="edge" d="M 825.0 418.0 C 847.5 418.0, 847.5 418.0, 870.0 418.0"/>
<path class="edge" d="M 265.0 2623.0 C 287.5 2623.0, 287.5 1228.0, 310.0 1228.0"/>
<path class="edge" d="M 545.0 1228.0 C 567.5 1228.0, 567.5 508.0, 590.0 508.0"/>
<path class="edge" d="M 825.0 508.0 C 847.5 508.0, 847.5 508.0, 870.0 508.0"/>
<path class="edge" d="M 545.0 1228.0 C 567.5 1228.0, 567.5 598.0, 590.0 598.0"/>
<path class="edge" d="M 825.0 598.0 C 847.5 598.0, 847.5 598.0, 870.0 598.0"/>
<path class="edge" d="M 545.0 1228.0 C 567.5 1228.0, 567.5 688.0, 590.0 688.0"/>
<path class="edge" d="M 825.0 688.0 C 847.5 688.0, 847.5 688.0, 870.0 688.0"/>
<path class="edge" d="M 545.0 1228.0 C 567.5 1228.0, 567.5 778.0, 590.0 778.0"/>
<path class="edge" d="M 825.0 778.0 C 847.5 778.0, 847.5 778.0, 870.0 778.0"/>
<path class="edge" d="M 545.0 1228.0 C 567.5 1228.0, 567.5 868.0, 590.0 868.0"/>
<path class="edge" d="M 825.0 868.0 C 847.5 868.0, 847.5 868.0, 870.0 868.0"/>
<path class="edge" d="M 545.0 1228.0 C 567.5 1228.0, 567.5 958.0, 590.0 958.0"/>
<path class="edge" d="M 825.0 958.0 C 847.5 958.0, 847.5 958.0, 870.0 958.0"/>
<path class="edge" d="M 545.0 1228.0 C 567.5 1228.0, 567.5 1048.0, 590.0 1048.0"/>
<path class="edge" d="M 825.0 1048.0 C 847.5 1048.0, 847.5 1048.0, 870.0 1048.0"/>
<path class="edge" d="M 545.0 1228.0 C 567.5 1228.0, 567.5 1138.0, 590.0 1138.0"/>
<path class="edge" d="M 825.0 1138.0 C 847.5 1138.0, 847.5 1138.0, 870.0 1138.0"/>
<path class="edge" d="M 545.0 1228.0 C 567.5 1228.0, 567.5 1228.0, 590.0 1228.0"/>
<path class="edge" d="M 825.0 1228.0 C 847.5 1228.0, 847.5 1228.0, 870.0 1228.0"/>
<path class="edge" d="M 545.0 1228.0 C 567.5 1228.0, 567.5 1318.0, 590.0 1318.0"/>
<path class="edge" d="M 825.0 1318.0 C 847.5 1318.0, 847.5 1318.0, 870.0 1318.0"/>
<path class="edge" d="M 545.0 1228.0 C 567.5 1228.0, 567.5 1408.0, 590.0 1408.0"/>
<path class="edge" d="M 825.0 1408.0 C 847.5 1408.0, 847.5 1408.0, 870.0 1408.0"/>
<path class="edge" d="M 545.0 1228.0 C 567.5 1228.0, 567.5 1498.0, 590.0 1498.0"/>
<path class="edge" d="M 825.0 1498.0 C 847.5 1498.0, 847.5 1498.0, 870.0 1498.0"/>
<path class="edge" d="M 545.0 1228.0 C 567.5 1228.0, 567.5 1588.0, 590.0 1588.0"/>
<path class="edge" d="M 825.0 1588.0 C 847.5 1588.0, 847.5 1588.0, 870.0 1588.0"/>
<path class="edge" d="M 545.0 1228.0 C 567.5 1228.0, 567.5 1678.0, 590.0 1678.0"/>
<path class="edge" d="M 825.0 1678.0 C 847.5 1678.0, 847.5 1678.0, 870.0 1678.0"/>
<path class="edge" d="M 545.0 1228.0 C 567.5 1228.0, 567.5 1768.0, 590.0 1768.0"/>
<path class="edge" d="M 825.0 1768.0 C 847.5 1768.0, 847.5 1768.0, 870.0 1768.0"/>
<path class="edge" d="M 545.0 1228.0 C 567.5 1228.0, 567.5 1858.0, 590.0 1858.0"/>
<path class="edge" d="M 825.0 1858.0 C 847.5 1858.0, 847.5 1858.0, 870.0 1858.0"/>
<path class="edge" d="M 545.0 1228.0 C 567.5 1228.0, 567.5 1948.0, 590.0 1948.0"/>
<path class="edge" d="M 265.0 2623.0 C 287.5 2623.0, 287.5 3545.5, 310.0 3545.5"/>
<path class="edge" d="M 545.0 3545.5 C 567.5 3545.5, 567.5 2083.0, 590.0 2083.0"/>
<path class="edge" d="M 825.0 2083.0 C 847.5 2083.0, 847.5 2038.0, 870.0 2038.0"/>
<path class="edge" d="M 825.0 2083.0 C 847.5 2083.0, 847.5 2128.0, 870.0 2128.0"/>
<path class="edge" d="M 545.0 3545.5 C 567.5 3545.5, 567.5 2263.0, 590.0 2263.0"/>
<path class="edge" d="M 825.0 2263.0 C 847.5 2263.0, 847.5 2218.0, 870.0 2218.0"/>
<path class="edge" d="M 825.0 2263.0 C 847.5 2263.0, 847.5 2308.0, 870.0 2308.0"/>
<path class="edge" d="M 545.0 3545.5 C 567.5 3545.5, 567.5 2443.0, 590.0 2443.0"/>
<path class="edge" d="M 825.0 2443.0 C 847.5 2443.0, 847.5 2398.0, 870.0 2398.0"/>
<path class="edge" d="M 825.0 2443.0 C 847.5 2443.0, 847.5 2488.0, 870.0 2488.0"/>
<path class="edge" d="M 545.0 3545.5 C 567.5 3545.5, 567.5 2623.0, 590.0 2623.0"/>
<path class="edge" d="M 825.0 2623.0 C 847.5 2623.0, 847.5 2578.0, 870.0 2578.0"/>
<path class="edge" d="M 825.0 2623.0 C 847.5 2623.0, 847.5 2668.0, 870.0 2668.0"/>
<path class="edge" d="M 545.0 3545.5 C 567.5 3545.5, 567.5 2803.0, 590.0 2803.0"/>
<path class="edge" d="M 825.0 2803.0 C 847.5 2803.0, 847.5 2758.0, 870.0 2758.0"/>
<path class="edge" d="M 825.0 2803.0 C 847.5 2803.0, 847.5 2848.0, 870.0 2848.0"/>
<path class="edge" d="M 545.0 3545.5 C 567.5 3545.5, 567.5 2983.0, 590.0 2983.0"/>
<path class="edge" d="M 825.0 2983.0 C 847.5 2983.0, 847.5 2938.0, 870.0 2938.0"/>
<path class="edge" d="M 825.0 2983.0 C 847.5 2983.0, 847.5 3028.0, 870.0 3028.0"/>
<path class="edge" d="M 545.0 3545.5 C 567.5 3545.5, 567.5 3163.0, 590.0 3163.0"/>
<path class="edge" d="M 825.0 3163.0 C 847.5 3163.0, 847.5 3118.0, 870.0 3118.0"/>
<path class="edge" d="M 825.0 3163.0 C 847.5 3163.0, 847.5 3208.0, 870.0 3208.0"/>
<path class="edge" d="M 545.0 3545.5 C 567.5 3545.5, 567.5 3343.0, 590.0 3343.0"/>
<path class="edge" d="M 825.0 3343.0 C 847.5 3343.0, 847.5 3298.0, 870.0 3298.0"/>
<path class="edge" d="M 825.0 3343.0 C 847.5 3343.0, 847.5 3388.0, 870.0 3388.0"/>
<path class="edge" d="M 545.0 3545.5 C 567.5 3545.5, 567.5 3523.0, 590.0 3523.0"/>
<path class="edge" d="M 825.0 3523.0 C 847.5 3523.0, 847.5 3478.0, 870.0 3478.0"/>
<path class="edge" d="M 825.0 3523.0 C 847.5 3523.0, 847.5 3568.0, 870.0 3568.0"/>
<path class="edge" d="M 545.0 3545.5 C 567.5 3545.5, 567.5 3703.0, 590.0 3703.0"/>
<path class="edge" d="M 825.0 3703.0 C 847.5 3703.0, 847.5 3658.0, 870.0 3658.0"/>
<path class="edge" d="M 825.0 3703.0 C 847.5 3703.0, 847.5 3748.0, 870.0 3748.0"/>
<path class="edge" d="M 545.0 3545.5 C 567.5 3545.5, 567.5 3883.0, 590.0 3883.0"/>
<path class="edge" d="M 825.0 3883.0 C 847.5 3883.0, 847.5 3838.0, 870.0 3838.0"/>
<path class="edge" d="M 825.0 3883.0 C 847.5 3883.0, 847.5 3928.0, 870.0 3928.0"/>
<path class="edge" d="M 545.0 3545.5 C 567.5 3545.5, 567.5 4063.0, 590.0 4063.0"/>
<path class="edge" d="M 825.0 4063.0 C 847.5 4063.0, 847.5 4018.0, 870.0 4018.0"/>
<path class="edge" d="M 825.0 4063.0 C 847.5 4063.0, 847.5 4108.0, 870.0 4108.0"/>
<path class="edge" d="M 545.0 3545.5 C 567.5 3545.5, 567.5 4243.0, 590.0 4243.0"/>
<path class="edge" d="M 825.0 4243.0 C 847.5 4243.0, 847.5 4198.0, 870.0 4198.0"/>
<path class="edge" d="M 825.0 4243.0 C 847.5 4243.0, 847.5 4288.0, 870.0 4288.0"/>
<path class="edge" d="M 545.0 3545.5 C 567.5 3545.5, 567.5 4423.0, 590.0 4423.0"/>
<path class="edge" d="M 825.0 4423.0 C 847.5 4423.0, 847.5 4378.0, 870.0 4378.0"/>
<path class="edge" d="M 825.0 4423.0 C 847.5 4423.0, 847.5 4468.0, 870.0 4468.0"/>
<path class="edge" d="M 545.0 3545.5 C 567.5 3545.5, 567.5 4603.0, 590.0 4603.0"/>
<path class="edge" d="M 825.0 4603.0 C 847.5 4603.0, 847.5 4558.0, 870.0 4558.0"/>
<path class="edge" d="M 825.0 4603.0 C 847.5 4603.0, 847.5 4648.0, 870.0 4648.0"/>
<path class="edge" d="M 545.0 3545.5 C 567.5 3545.5, 567.5 4783.0, 590.0 4783.0"/>
<path class="edge" d="M 825.0 4783.0 C 847.5 4783.0, 847.5 4738.0, 870.0 4738.0"/>
<path class="edge" d="M 825.0 4783.0 C 847.5 4783.0, 847.5 4828.0, 870.0 4828.0"/>
<path class="edge" d="M 545.0 3545.5 C 567.5 3545.5, 567.5 4918.0, 590.0 4918.0"/>
<path class="edge" d="M 545.0 3545.5 C 567.5 3545.5, 567.5 5008.0, 590.0 5008.0"/>
<path class="edge" d="M 265.0 2623.0 C 287.5 2623.0, 287.5 5098.0, 310.0 5098.0"/>
<path class="edge" d="M 545.0 5098.0 C 567.5 5098.0, 567.5 5098.0, 590.0 5098.0"/>
<path class="edge" d="M 265.0 2623.0 C 287.5 2623.0, 287.5 5188.0, 310.0 5188.0"/>
<rect class="node node-context" x="30.0" y="2595.0" width="235.0" height="56.0"/>
<text class="title" x="42.0" y="2617.0">Context</text>
<text class="subtitle" x="42.0" y="2636.0">network | fe80::cded:de6a:bb6d:405d%enx...</text>
<rect class="node node-summary" x="310.0" y="30.0" width="235.0" height="56.0"/>
<text class="title" x="322.0" y="52.0">Context Attributes</text>
<text class="subtitle" x="322.0" y="71.0">6 entries</text>
<rect class="node node-device" x="310.0" y="255.0" width="235.0" height="56.0"/>
<text class="title" x="322.0" y="277.0">Device</text>
<text class="subtitle" x="322.0" y="296.0">iio:device0 | one-bit-adc-dac</text>
<rect class="node node-channel" x="590.0" y="120.0" width="235.0" height="56.0"/>
<text class="title" x="602.0" y="142.0">Channel</text>
<text class="subtitle" x="602.0" y="161.0">voltage0 | input</text>
<rect class="node node-summary" x="870.0" y="120.0" width="235.0" height="56.0"/>
<text class="title" x="882.0" y="142.0">Attributes</text>
<text class="subtitle" x="882.0" y="161.0">2 entries</text>
<rect class="node node-channel" x="590.0" y="210.0" width="235.0" height="56.0"/>
<text class="title" x="602.0" y="232.0">Channel</text>
<text class="subtitle" x="602.0" y="251.0">voltage0 | output</text>
<rect class="node node-summary" x="870.0" y="210.0" width="235.0" height="56.0"/>
<text class="title" x="882.0" y="232.0">Attributes</text>
<text class="subtitle" x="882.0" y="251.0">2 entries</text>
<rect class="node node-channel" x="590.0" y="300.0" width="235.0" height="56.0"/>
<text class="title" x="602.0" y="322.0">Channel</text>
<text class="subtitle" x="602.0" y="341.0">voltage1 | input</text>
<rect class="node node-summary" x="870.0" y="300.0" width="235.0" height="56.0"/>
<text class="title" x="882.0" y="322.0">Attributes</text>
<text class="subtitle" x="882.0" y="341.0">2 entries</text>
<rect class="node node-channel" x="590.0" y="390.0" width="235.0" height="56.0"/>
<text class="title" x="602.0" y="412.0">Channel</text>
<text class="subtitle" x="602.0" y="431.0">voltage1 | output</text>
<rect class="node node-summary" x="870.0" y="390.0" width="235.0" height="56.0"/>
<text class="title" x="882.0" y="412.0">Attributes</text>
<text class="subtitle" x="882.0" y="431.0">2 entries</text>
<rect class="node node-device" x="310.0" y="1200.0" width="235.0" height="56.0"/>
<text class="title" x="322.0" y="1222.0">Device</text>
<text class="subtitle" x="322.0" y="1241.0">iio:device1 | ltc2688</text>
<rect class="node node-channel" x="590.0" y="480.0" width="235.0" height="56.0"/>
<text class="title" x="602.0" y="502.0">Channel</text>
<text class="subtitle" x="602.0" y="521.0">voltage0 | output</text>
<rect class="node node-summary" x="870.0" y="480.0" width="235.0" height="56.0"/>
<text class="title" x="882.0" y="502.0">Attributes</text>
<text class="subtitle" x="882.0" y="521.0">7 entries</text>
<rect class="node node-channel" x="590.0" y="570.0" width="235.0" height="56.0"/>
<text class="title" x="602.0" y="592.0">Channel</text>
<text class="subtitle" x="602.0" y="611.0">voltage1 | output</text>
<rect class="node node-summary" x="870.0" y="570.0" width="235.0" height="56.0"/>
<text class="title" x="882.0" y="592.0">Attributes</text>
<text class="subtitle" x="882.0" y="611.0">7 entries</text>
<rect class="node node-channel" x="590.0" y="660.0" width="235.0" height="56.0"/>
<text class="title" x="602.0" y="682.0">Channel</text>
<text class="subtitle" x="602.0" y="701.0">voltage10 | output</text>
<rect class="node node-summary" x="870.0" y="660.0" width="235.0" height="56.0"/>
<text class="title" x="882.0" y="682.0">Attributes</text>
<text class="subtitle" x="882.0" y="701.0">7 entries</text>
<rect class="node node-channel" x="590.0" y="750.0" width="235.0" height="56.0"/>
<text class="title" x="602.0" y="772.0">Channel</text>
<text class="subtitle" x="602.0" y="791.0">voltage11 | output</text>
<rect class="node node-summary" x="870.0" y="750.0" width="235.0" height="56.0"/>
<text class="title" x="882.0" y="772.0">Attributes</text>
<text class="subtitle" x="882.0" y="791.0">7 entries</text>
<rect class="node node-channel" x="590.0" y="840.0" width="235.0" height="56.0"/>
<text class="title" x="602.0" y="862.0">Channel</text>
<text class="subtitle" x="602.0" y="881.0">voltage12 | output</text>
<rect class="node node-summary" x="870.0" y="840.0" width="235.0" height="56.0"/>
<text class="title" x="882.0" y="862.0">Attributes</text>
<text class="subtitle" x="882.0" y="881.0">7 entries</text>
<rect class="node node-channel" x="590.0" y="930.0" width="235.0" height="56.0"/>
<text class="title" x="602.0" y="952.0">Channel</text>
<text class="subtitle" x="602.0" y="971.0">voltage13 | output</text>
<rect class="node node-summary" x="870.0" y="930.0" width="235.0" height="56.0"/>
<text class="title" x="882.0" y="952.0">Attributes</text>
<text class="subtitle" x="882.0" y="971.0">7 entries</text>
<rect class="node node-channel" x="590.0" y="1020.0" width="235.0" height="56.0"/>
<text class="title" x="602.0" y="1042.0">Channel</text>
<text class="subtitle" x="602.0" y="1061.0">voltage14 | output</text>
<rect class="node node-summary" x="870.0" y="1020.0" width="235.0" height="56.0"/>
<text class="title" x="882.0" y="1042.0">Attributes</text>
<text class="subtitle" x="882.0" y="1061.0">7 entries</text>
<rect class="node node-channel" x="590.0" y="1110.0" width="235.0" height="56.0"/>
<text class="title" x="602.0" y="1132.0">Channel</text>
<text class="subtitle" x="602.0" y="1151.0">voltage15 | output</text>
<rect class="node node-summary" x="870.0" y="1110.0" width="235.0" height="56.0"/>
<text class="title" x="882.0" y="1132.0">Attributes</text>
<text class="subtitle" x="882.0" y="1151.0">7 entries</text>
<rect class="node node-channel" x="590.0" y="1200.0" width="235.0" height="56.0"/>
<text class="title" x="602.0" y="1222.0">Channel</text>
<text class="subtitle" x="602.0" y="1241.0">voltage2 | output</text>
<rect class="node node-summary" x="870.0" y="1200.0" width="235.0" height="56.0"/>
<text class="title" x="882.0" y="1222.0">Attributes</text>
<text class="subtitle" x="882.0" y="1241.0">7 entries</text>
<rect class="node node-channel" x="590.0" y="1290.0" width="235.0" height="56.0"/>
<text class="title" x="602.0" y="1312.0">Channel</text>
<text class="subtitle" x="602.0" y="1331.0">voltage3 | output</text>
<rect class="node node-summary" x="870.0" y="1290.0" width="235.0" height="56.0"/>
<text class="title" x="882.0" y="1312.0">Attributes</text>
<text class="subtitle" x="882.0" y="1331.0">7 entries</text>
<rect class="node node-channel" x="590.0" y="1380.0" width="235.0" height="56.0"/>
<text class="title" x="602.0" y="1402.0">Channel</text>
<text class="subtitle" x="602.0" y="1421.0">voltage4 | output</text>
<rect class="node node-summary" x="870.0" y="1380.0" width="235.0" height="56.0"/>
<text class="title" x="882.0" y="1402.0">Attributes</text>
<text class="subtitle" x="882.0" y="1421.0">7 entries</text>
<rect class="node node-channel" x="590.0" y="1470.0" width="235.0" height="56.0"/>
<text class="title" x="602.0" y="1492.0">Channel</text>
<text class="subtitle" x="602.0" y="1511.0">voltage5 | output</text>
<rect class="node node-summary" x="870.0" y="1470.0" width="235.0" height="56.0"/>
<text class="title" x="882.0" y="1492.0">Attributes</text>
<text class="subtitle" x="882.0" y="1511.0">7 entries</text>
<rect class="node node-channel" x="590.0" y="1560.0" width="235.0" height="56.0"/>
<text class="title" x="602.0" y="1582.0">Channel</text>
<text class="subtitle" x="602.0" y="1601.0">voltage6 | output</text>
<rect class="node node-summary" x="870.0" y="1560.0" width="235.0" height="56.0"/>
<text class="title" x="882.0" y="1582.0">Attributes</text>
<text class="subtitle" x="882.0" y="1601.0">7 entries</text>
<rect class="node node-channel" x="590.0" y="1650.0" width="235.0" height="56.0"/>
<text class="title" x="602.0" y="1672.0">Channel</text>
<text class="subtitle" x="602.0" y="1691.0">voltage7 | output</text>
<rect class="node node-summary" x="870.0" y="1650.0" width="235.0" height="56.0"/>
<text class="title" x="882.0" y="1672.0">Attributes</text>
<text class="subtitle" x="882.0" y="1691.0">7 entries</text>
<rect class="node node-channel" x="590.0" y="1740.0" width="235.0" height="56.0"/>
<text class="title" x="602.0" y="1762.0">Channel</text>
<text class="subtitle" x="602.0" y="1781.0">voltage8 | output</text>
<rect class="node node-summary" x="870.0" y="1740.0" width="235.0" height="56.0"/>
<text class="title" x="882.0" y="1762.0">Attributes</text>
<text class="subtitle" x="882.0" y="1781.0">7 entries</text>
<rect class="node node-channel" x="590.0" y="1830.0" width="235.0" height="56.0"/>
<text class="title" x="602.0" y="1852.0">Channel</text>
<text class="subtitle" x="602.0" y="1871.0">voltage9 | output</text>
<rect class="node node-summary" x="870.0" y="1830.0" width="235.0" height="56.0"/>
<text class="title" x="882.0" y="1852.0">Attributes</text>
<text class="subtitle" x="882.0" y="1871.0">7 entries</text>
<rect class="node node-summary" x="590.0" y="1920.0" width="235.0" height="56.0"/>
<text class="title" x="602.0" y="1942.0">Debug Attributes</text>
<text class="subtitle" x="602.0" y="1961.0">1 entry</text>
<rect class="node node-device" x="310.0" y="3517.5" width="235.0" height="56.0"/>
<text class="title" x="322.0" y="3539.5">Device</text>
<text class="subtitle" x="322.0" y="3558.5">iio:device2 | ad7124-8</text>
<rect class="node node-channel" x="590.0" y="2055.0" width="235.0" height="56.0"/>
<text class="title" x="602.0" y="2077.0">Channel</text>
<text class="subtitle" x="602.0" y="2096.0">voltage0-voltage19 | input</text>
<rect class="node node-summary" x="870.0" y="2010.0" width="235.0" height="56.0"/>
<text class="title" x="882.0" y="2032.0">Attributes</text>
<text class="subtitle" x="882.0" y="2051.0">6 entries</text>
<rect class="node node-summary" x="870.0" y="2100.0" width="235.0" height="56.0"/>
<text class="title" x="882.0" y="2122.0">Scan Elements</text>
<text class="subtitle" x="882.0" y="2141.0">1 entry</text>
<rect class="node node-channel" x="590.0" y="2235.0" width="235.0" height="56.0"/>
<text class="title" x="602.0" y="2257.0">Channel</text>
<text class="subtitle" x="602.0" y="2276.0">voltage1-voltage19 | input</text>
<rect class="node node-summary" x="870.0" y="2190.0" width="235.0" height="56.0"/>
<text class="title" x="882.0" y="2212.0">Attributes</text>
<text class="subtitle" x="882.0" y="2231.0">6 entries</text>
<rect class="node node-summary" x="870.0" y="2280.0" width="235.0" height="56.0"/>
<text class="title" x="882.0" y="2302.0">Scan Elements</text>
<text class="subtitle" x="882.0" y="2321.0">1 entry</text>
<rect class="node node-channel" x="590.0" y="2415.0" width="235.0" height="56.0"/>
<text class="title" x="602.0" y="2437.0">Channel</text>
<text class="subtitle" x="602.0" y="2456.0">voltage10-voltage19 | input</text>
<rect class="node node-summary" x="870.0" y="2370.0" width="235.0" height="56.0"/>
<text class="title" x="882.0" y="2392.0">Attributes</text>
<text class="subtitle" x="882.0" y="2411.0">6 entries</text>
<rect class="node node-summary" x="870.0" y="2460.0" width="235.0" height="56.0"/>
<text class="title" x="882.0" y="2482.0">Scan Elements</text>
<text class="subtitle" x="882.0" y="2501.0">1 entry</text>
<rect class="node node-channel" x="590.0" y="2595.0" width="235.0" height="56.0"/>
<text class="title" x="602.0" y="2617.0">Channel</text>
<text class="subtitle" x="602.0" y="2636.0">voltage11-voltage19 | input</text>
<rect class="node node-summary" x="870.0" y="2550.0" width="235.0" height="56.0"/>
<text class="title" x="882.0" y="2572.0">Attributes</text>
<text class="subtitle" x="882.0" y="2591.0">6 entries</text>
<rect class="node node-summary" x="870.0" y="2640.0" width="235.0" height="56.0"/>
<text class="title" x="882.0" y="2662.0">Scan Elements</text>
<text class="subtitle" x="882.0" y="2681.0">1 entry</text>
<rect class="node node-channel" x="590.0" y="2775.0" width="235.0" height="56.0"/>
<text class="title" x="602.0" y="2797.0">Channel</text>
<text class="subtitle" x="602.0" y="2816.0">voltage12-voltage19 | input</text>
<rect class="node node-summary" x="870.0" y="2730.0" width="235.0" height="56.0"/>
<text class="title" x="882.0" y="2752.0">Attributes</text>
<text class="subtitle" x="882.0" y="2771.0">6 entries</text>
<rect class="node node-summary" x="870.0" y="2820.0" width="235.0" height="56.0"/>
<text class="title" x="882.0" y="2842.0">Scan Elements</text>
<text class="subtitle" x="882.0" y="2861.0">1 entry</text>
<rect class="node node-channel" x="590.0" y="2955.0" width="235.0" height="56.0"/>
<text class="title" x="602.0" y="2977.0">Channel</text>
<text class="subtitle" x="602.0" y="2996.0">voltage13-voltage19 | input</text>
<rect class="node node-summary" x="870.0" y="2910.0" width="235.0" height="56.0"/>
<text class="title" x="882.0" y="2932.0">Attributes</text>
<text class="subtitle" x="882.0" y="2951.0">6 entries</text>
<rect class="node node-summary" x="870.0" y="3000.0" width="235.0" height="56.0"/>
<text class="title" x="882.0" y="3022.0">Scan Elements</text>
<text class="subtitle" x="882.0" y="3041.0">1 entry</text>
<rect class="node node-channel" x="590.0" y="3135.0" width="235.0" height="56.0"/>
<text class="title" x="602.0" y="3157.0">Channel</text>
<text class="subtitle" x="602.0" y="3176.0">voltage14-voltage19 | input</text>
<rect class="node node-summary" x="870.0" y="3090.0" width="235.0" height="56.0"/>
<text class="title" x="882.0" y="3112.0">Attributes</text>
<text class="subtitle" x="882.0" y="3131.0">6 entries</text>
<rect class="node node-summary" x="870.0" y="3180.0" width="235.0" height="56.0"/>
<text class="title" x="882.0" y="3202.0">Scan Elements</text>
<text class="subtitle" x="882.0" y="3221.0">1 entry</text>
<rect class="node node-channel" x="590.0" y="3315.0" width="235.0" height="56.0"/>
<text class="title" x="602.0" y="3337.0">Channel</text>
<text class="subtitle" x="602.0" y="3356.0">voltage15-voltage19 | input</text>
<rect class="node node-summary" x="870.0" y="3270.0" width="235.0" height="56.0"/>
<text class="title" x="882.0" y="3292.0">Attributes</text>
<text class="subtitle" x="882.0" y="3311.0">6 entries</text>
<rect class="node node-summary" x="870.0" y="3360.0" width="235.0" height="56.0"/>
<text class="title" x="882.0" y="3382.0">Scan Elements</text>
<text class="subtitle" x="882.0" y="3401.0">1 entry</text>
<rect class="node node-channel" x="590.0" y="3495.0" width="235.0" height="56.0"/>
<text class="title" x="602.0" y="3517.0">Channel</text>
<text class="subtitle" x="602.0" y="3536.0">voltage2-voltage19 | input</text>
<rect class="node node-summary" x="870.0" y="3450.0" width="235.0" height="56.0"/>
<text class="title" x="882.0" y="3472.0">Attributes</text>
<text class="subtitle" x="882.0" y="3491.0">6 entries</text>
<rect class="node node-summary" x="870.0" y="3540.0" width="235.0" height="56.0"/>
<text class="title" x="882.0" y="3562.0">Scan Elements</text>
<text class="subtitle" x="882.0" y="3581.0">1 entry</text>
<rect class="node node-channel" x="590.0" y="3675.0" width="235.0" height="56.0"/>
<text class="title" x="602.0" y="3697.0">Channel</text>
<text class="subtitle" x="602.0" y="3716.0">voltage3-voltage19 | input</text>
<rect class="node node-summary" x="870.0" y="3630.0" width="235.0" height="56.0"/>
<text class="title" x="882.0" y="3652.0">Attributes</text>
<text class="subtitle" x="882.0" y="3671.0">6 entries</text>
<rect class="node node-summary" x="870.0" y="3720.0" width="235.0" height="56.0"/>
<text class="title" x="882.0" y="3742.0">Scan Elements</text>
<text class="subtitle" x="882.0" y="3761.0">1 entry</text>
<rect class="node node-channel" x="590.0" y="3855.0" width="235.0" height="56.0"/>
<text class="title" x="602.0" y="3877.0">Channel</text>
<text class="subtitle" x="602.0" y="3896.0">voltage4-voltage19 | input</text>
<rect class="node node-summary" x="870.0" y="3810.0" width="235.0" height="56.0"/>
<text class="title" x="882.0" y="3832.0">Attributes</text>
<text class="subtitle" x="882.0" y="3851.0">6 entries</text>
<rect class="node node-summary" x="870.0" y="3900.0" width="235.0" height="56.0"/>
<text class="title" x="882.0" y="3922.0">Scan Elements</text>
<text class="subtitle" x="882.0" y="3941.0">1 entry</text>
<rect class="node node-channel" x="590.0" y="4035.0" width="235.0" height="56.0"/>
<text class="title" x="602.0" y="4057.0">Channel</text>
<text class="subtitle" x="602.0" y="4076.0">voltage5-voltage19 | input</text>
<rect class="node node-summary" x="870.0" y="3990.0" width="235.0" height="56.0"/>
<text class="title" x="882.0" y="4012.0">Attributes</text>
<text class="subtitle" x="882.0" y="4031.0">6 entries</text>
<rect class="node node-summary" x="870.0" y="4080.0" width="235.0" height="56.0"/>
<text class="title" x="882.0" y="4102.0">Scan Elements</text>
<text class="subtitle" x="882.0" y="4121.0">1 entry</text>
<rect class="node node-channel" x="590.0" y="4215.0" width="235.0" height="56.0"/>
<text class="title" x="602.0" y="4237.0">Channel</text>
<text class="subtitle" x="602.0" y="4256.0">voltage6-voltage19 | input</text>
<rect class="node node-summary" x="870.0" y="4170.0" width="235.0" height="56.0"/>
<text class="title" x="882.0" y="4192.0">Attributes</text>
<text class="subtitle" x="882.0" y="4211.0">6 entries</text>
<rect class="node node-summary" x="870.0" y="4260.0" width="235.0" height="56.0"/>
<text class="title" x="882.0" y="4282.0">Scan Elements</text>
<text class="subtitle" x="882.0" y="4301.0">1 entry</text>
<rect class="node node-channel" x="590.0" y="4395.0" width="235.0" height="56.0"/>
<text class="title" x="602.0" y="4417.0">Channel</text>
<text class="subtitle" x="602.0" y="4436.0">voltage7-voltage19 | input</text>
<rect class="node node-summary" x="870.0" y="4350.0" width="235.0" height="56.0"/>
<text class="title" x="882.0" y="4372.0">Attributes</text>
<text class="subtitle" x="882.0" y="4391.0">6 entries</text>
<rect class="node node-summary" x="870.0" y="4440.0" width="235.0" height="56.0"/>
<text class="title" x="882.0" y="4462.0">Scan Elements</text>
<text class="subtitle" x="882.0" y="4481.0">1 entry</text>
<rect class="node node-channel" x="590.0" y="4575.0" width="235.0" height="56.0"/>
<text class="title" x="602.0" y="4597.0">Channel</text>
<text class="subtitle" x="602.0" y="4616.0">voltage8-voltage19 | input</text>
<rect class="node node-summary" x="870.0" y="4530.0" width="235.0" height="56.0"/>
<text class="title" x="882.0" y="4552.0">Attributes</text>
<text class="subtitle" x="882.0" y="4571.0">6 entries</text>
<rect class="node node-summary" x="870.0" y="4620.0" width="235.0" height="56.0"/>
<text class="title" x="882.0" y="4642.0">Scan Elements</text>
<text class="subtitle" x="882.0" y="4661.0">1 entry</text>
<rect class="node node-channel" x="590.0" y="4755.0" width="235.0" height="56.0"/>
<text class="title" x="602.0" y="4777.0">Channel</text>
<text class="subtitle" x="602.0" y="4796.0">voltage9-voltage19 | input</text>
<rect class="node node-summary" x="870.0" y="4710.0" width="235.0" height="56.0"/>
<text class="title" x="882.0" y="4732.0">Attributes</text>
<text class="subtitle" x="882.0" y="4751.0">6 entries</text>
<rect class="node node-summary" x="870.0" y="4800.0" width="235.0" height="56.0"/>
<text class="title" x="882.0" y="4822.0">Scan Elements</text>
<text class="subtitle" x="882.0" y="4841.0">1 entry</text>
<rect class="node node-summary" x="590.0" y="4890.0" width="235.0" height="56.0"/>
<text class="title" x="602.0" y="4912.0">Debug Attributes</text>
<text class="subtitle" x="602.0" y="4931.0">1 entry</text>
<rect class="node node-summary" x="590.0" y="4980.0" width="235.0" height="56.0"/>
<text class="title" x="602.0" y="5002.0">Buffer Attributes</text>
<text class="subtitle" x="602.0" y="5021.0">1 entry</text>
<rect class="node node-device" x="310.0" y="5070.0" width="235.0" height="56.0"/>
<text class="title" x="322.0" y="5092.0">Device</text>
<text class="subtitle" x="322.0" y="5111.0">iio_sysfs_trigger</text>
<rect class="node node-summary" x="590.0" y="5070.0" width="235.0" height="56.0"/>
<text class="title" x="602.0" y="5092.0">Attributes</text>
<text class="subtitle" x="602.0" y="5111.0">2 entries</text>
<rect class="node node-device" x="310.0" y="5160.0" width="235.0" height="56.0"/>
<text class="title" x="322.0" y="5182.0">Device</text>
<text class="subtitle" x="322.0" y="5201.0">trigger0 | ad7124-8-dev2</text>
<rect x="1160" y="16" width="230" height="92" fill="#ffffff" stroke="#c6cfdb" rx="8" ry="8"/>
<text class="legend-title" x="1172" y="36">Node Types</text>
<rect class="node node-context" x="1172" y="41" width="14" height="10" rx="2" ry="2"/>
<text class="legend-text" x="1192" y="50">Context</text>
<rect class="node node-device" x="1172" y="55" width="14" height="10" rx="2" ry="2"/>
<text class="legend-text" x="1192" y="64">Device</text>
<rect class="node node-channel" x="1172" y="69" width="14" height="10" rx="2" ry="2"/>
<text class="legend-text" x="1192" y="78">Channel</text>
<rect class="node node-summary" x="1172" y="83" width="14" height="10" rx="2" ry="2"/>
<text class="legend-text" x="1192" y="92">Grouped Attributes</text>
</svg>