<?xml version="1.0" encoding="UTF-8" standalone="no"?>
<!-- Created with Inkscape (http://www.inkscape.org/) -->

<svg
   xmlns:dc="http://purl.org/dc/elements/1.1/"
   xmlns:cc="http://creativecommons.org/ns#"
   xmlns:rdf="http://www.w3.org/1999/02/22-rdf-syntax-ns#"
   xmlns:svg="http://www.w3.org/2000/svg"
   xmlns="http://www.w3.org/2000/svg"
   xmlns:xlink="http://www.w3.org/1999/xlink"
   xmlns:sodipodi="http://sodipodi.sourceforge.net/DTD/sodipodi-0.dtd"
   xmlns:inkscape="http://www.inkscape.org/namespaces/inkscape"
   width="165.43224mm"
   height="35.48502mm"
   viewBox="0 0 165.43224 35.48502"
   version="1.1"
   id="svg3165"
   inkscape:version="0.92.4 (5da689c313, 2019-01-14)"
   sodipodi:docname="PyADI-IIO_Logo_g.svg">
  <defs
     id="defs3159">
    <linearGradient
       inkscape:collect="always"
       xlink:href="#linearGradient9515"
       id="linearGradient3553"
       gradientUnits="userSpaceOnUse"
       x1="55.549179"
       y1="77.070274"
       x2="110.14919"
       y2="131.85291" />
    <linearGradient
       id="linearGradient9515"
       inkscape:collect="always">
      <stop
         id="stop9517"
         offset="0"
         style="stop-color:#387eb8;stop-opacity:1" />
      <stop
         id="stop9519"
         offset="1"
         style="stop-color:#366994;stop-opacity:1" />
    </linearGradient>
    <linearGradient
       inkscape:collect="always"
       xlink:href="#linearGradient11301"
       id="linearGradient3555"
       gradientUnits="userSpaceOnUse"
       x1="89.136749"
       y1="111.92053"
       x2="147.77737"
       y2="168.1012" />
    <linearGradient
       id="linearGradient11301"
       inkscape:collect="always">
      <stop
         id="stop11303"
         offset="0"
         style="stop-color:#ffe052;stop-opacity:1" />
      <stop
         id="stop11305"
         offset="1"
         style="stop-color:#ffc331;stop-opacity:1" />
    </linearGradient>
    <linearGradient
       inkscape:collect="always"
       xlink:href="#linearGradient9515"
       id="linearGradient3553-6"
       gradientUnits="userSpaceOnUse"
       x1="55.549179"
       y1="77.070274"
       x2="110.14919"
       y2="131.85291" />
    <linearGradient
       inkscape:collect="always"
       xlink:href="#linearGradient11301"
       id="linearGradient3555-1"
       gradientUnits="userSpaceOnUse"
       x1="89.136749"
       y1="111.92053"
       x2="147.77737"
       y2="168.1012" />
  </defs>
  <sodipodi:namedview
     id="base"
     pagecolor="#ffffff"
     bordercolor="#666666"
     borderopacity="1.0"
     inkscape:pageopacity="0.0"
     inkscape:pageshadow="2"
     inkscape:zoom="1.44"
     inkscape:cx="435.1706"
     inkscape:cy="37.694895"
     inkscape:document-units="mm"
     inkscape:current-layer="layer1"
     showgrid="false"
     fit-margin-top="5"
     fit-margin-left="5"
     fit-margin-right="5"
     fit-margin-bottom="5"
     inkscape:window-width="1722"
     inkscape:window-height="1047"
     inkscape:window-x="293"
     inkscape:window-y="53"
     inkscape:window-maximized="0" />
  <metadata
     id="metadata3162">
    <rdf:RDF>
      <cc:Work
         rdf:about="">
        <dc:format>image/svg+xml</dc:format>
        <dc:type
           rdf:resource="http://purl.org/dc/dcmitype/StillImage" />
        <dc:title></dc:title>
      </cc:Work>
    </rdf:RDF>
  </metadata>
  <g
     inkscape:label="Layer 1"
     inkscape:groupmode="layer"
     id="layer1"
     transform="translate(306.47802,265.02822)">
    <g
       id="g1894-7-1-3"
       transform="matrix(0.10303355,0,0,0.1030334,-230.82736,-266.67467)"
       style="stroke:#ffffff;stroke-width:3.88223338;stroke-miterlimit:4;stroke-dasharray:none;stroke-opacity:1">
      <path
         inkscape:connector-curvature="0"
         style="color:#000000;display:inline;overflow:visible;visibility:visible;opacity:1;fill:url(#linearGradient3553-6);fill-opacity:1;fill-rule:nonzero;stroke:#ffffff;stroke-width:3.88223338;stroke-linecap:butt;stroke-linejoin:miter;stroke-miterlimit:4;stroke-dasharray:none;stroke-dashoffset:0;stroke-opacity:1;marker:none;marker-start:none;marker-mid:none;marker-end:none"
         d="M 99.75,67.46875 C 71.718268,67.468752 73.46875,79.625 73.46875,79.625 L 73.5,92.21875 h 26.75 V 96 H 62.875 c 0,0 -17.9375,-2.034276 -17.9375,26.25 -2e-6,28.28427 15.65625,27.28125 15.65625,27.28125 h 9.34375 v -13.125 c 0,0 -0.503652,-15.65625 15.40625,-15.65625 15.9099,0 26.53125,0 26.53125,0 0,0 14.90625,0.24096 14.90625,-14.40625 0,-14.647206 0,-24.21875 0,-24.21875 0,-2e-6 2.26318,-14.65625 -27.03125,-14.65625 z M 85,75.9375 c 2.661429,-2e-6 4.8125,2.151071 4.8125,4.8125 2e-6,2.661429 -2.151071,4.8125 -4.8125,4.8125 -2.661429,2e-6 -4.8125,-2.151071 -4.8125,-4.8125 -2e-6,-2.661429 2.151071,-4.8125 4.8125,-4.8125 z"
         id="path8615-3-9-8" />
      <path
         inkscape:connector-curvature="0"
         id="path8620-6-9-5"
         d="m 100.5461,177.31485 c 28.03174,0 26.28125,-12.15625 26.28125,-12.15625 l -0.0312,-12.59375 h -26.75 v -3.78125 h 37.375 c 0,0 17.9375,2.03427 17.9375,-26.25001 10e-6,-28.284267 -15.65625,-27.281247 -15.65625,-27.281247 h -9.34375 v 13.124997 c 0,0 0.50366,15.65625 -15.40625,15.65625 -15.909902,0 -26.531252,0 -26.531252,0 0,0 -14.90625,-0.24096 -14.90625,14.40626 0,14.6472 0,24.21875 0,24.21875 0,0 -2.26318,14.65625 27.031252,14.65625 z m 14.75,-8.46875 c -2.66143,0 -4.8125,-2.15107 -4.8125,-4.8125 0,-2.66143 2.15107,-4.8125 4.8125,-4.8125 2.66143,0 4.8125,2.15107 4.8125,4.8125 1e-5,2.66143 -2.15107,4.8125 -4.8125,4.8125 z"
         style="color:#000000;display:inline;overflow:visible;visibility:visible;opacity:1;fill:url(#linearGradient3555-1);fill-opacity:1;fill-rule:nonzero;stroke:#ffffff;stroke-width:3.88223338;stroke-linecap:butt;stroke-linejoin:miter;stroke-miterlimit:4;stroke-dasharray:none;stroke-dashoffset:0;stroke-opacity:1;marker:none;marker-start:none;marker-mid:none;marker-end:none" />
    </g>
    <path
       style="fill:#ff8d34;fill-opacity:1;stroke:none;stroke-width:2.72260737;stroke-miterlimit:4;stroke-dasharray:none;stroke-dashoffset:0;stroke-opacity:1"
       d="m 280.70117,0.9296875 -0.0879,31.5000005 -0.0879,31.5 27.32422,-15.673829 27.32422,-15.673828 -27.23633,-15.826172 z m 31.49024,34.9921875 a 2.857143,2.6007325 0 0 1 2.85742,2.599609 2.857143,2.6007325 0 0 1 -2.85742,2.601563 2.857143,2.6007325 0 0 1 -2.85743,-2.601563 2.857143,2.6007325 0 0 1 2.85743,-2.599609 z"
       transform="matrix(0.26458333,0,0,0.26458333,-301.47802,-260.02822)"
       id="path888-5"
       inkscape:connector-curvature="0" />
    <path
       inkscape:connector-curvature="0"
       style="font-style:normal;font-variant:normal;font-weight:500;font-stretch:normal;font-size:63.9896431px;line-height:1.25;font-family:AzbukaW01-Medium;-inkscape-font-specification:'AzbukaW01-Medium, Medium';font-variant-ligatures:normal;font-variant-caps:normal;font-variant-numeric:normal;font-feature-settings:normal;text-align:start;letter-spacing:0px;word-spacing:0px;writing-mode:lr-tb;text-anchor:start;fill:#808080;fill-opacity:1;stroke:none;stroke-width:0.42326167"
       d="m -211.12283,-255.222 v 12.05301 h 1.86035 v -2.73058 h -0.01 v -5.69423 h 0.01 v -2.05724 h 2.51302 c 0.30312,0 0.5733,0.0601 0.81029,0.18138 0.23698,0.12125 0.43497,0.28943 0.59479,0.50437 0.16534,0.20942 0.2894,0.45479 0.37207,0.73587 0.0882,0.27556 0.13229,0.57056 0.13229,0.8847 0,0.43539 -0.0717,0.80155 -0.21497,1.09916 -0.14329,0.29209 -0.32474,0.52644 -0.54519,0.7028 -0.22045,0.17636 -0.46306,0.30318 -0.7276,0.38034 -0.26454,0.0772 -0.51818,0.11575 -0.76068,0.11575 h -0.3638 v 1.57923 h 0.93431 c 0.51255,0 0.98623,-0.091 1.42162,-0.27285 0.4409,-0.18738 0.82136,-0.4493 1.14102,-0.78548 0.31965,-0.33619 0.57053,-0.74146 0.7524,-1.21543 0.18188,-0.47948 0.27286,-1.01381 0.27286,-1.60352 0,-0.58971 -0.0827,-1.1218 -0.24805,-1.59577 -0.15983,-0.47948 -0.39417,-0.88699 -0.7028,-1.22318 -0.30863,-0.3417 -0.68634,-0.60361 -1.13275,-0.78548 -0.4409,-0.18187 -0.94215,-0.27285 -1.5043,-0.27285 z"
       id="path3593" />
    <path
       inkscape:connector-curvature="0"
       id="path3595"
       style="font-style:normal;font-variant:normal;font-weight:500;font-stretch:normal;font-size:63.9896431px;line-height:1.25;font-family:AzbukaW01-Medium;-inkscape-font-specification:'AzbukaW01-Medium, Medium';font-variant-ligatures:normal;font-variant-caps:normal;font-variant-numeric:normal;font-feature-settings:normal;text-align:start;letter-spacing:0px;word-spacing:0px;writing-mode:lr-tb;text-anchor:start;fill:#808080;fill-opacity:1;stroke:none;stroke-width:0.42326167"
       d="m -202.01257,-241.57337 q 0.14881,0.0744 0.32241,0.13227 0.14881,0.0496 0.33895,0.0909 0.19013,0.0413 0.40507,0.0413 0.28108,0 0.48775,-0.0744 0.21494,-0.0744 0.38854,-0.25627 0.17361,-0.18187 0.33068,-0.48775 0.16534,-0.30587 0.35548,-0.76882 0.0661,-0.14054 0.11573,-0.28934 0.0579,-0.15707 0.13227,-0.32241 l -3.21582,-8.39916 h 1.90139 l 2.14939,6.23323 q 0.1984,-0.52908 0.39681,-1.08296 0.20667,-0.55388 0.39681,-1.09123 0.19841,-0.53734 0.38028,-1.04162 0.18187,-0.51255 0.34721,-0.96723 0.38027,-1.05817 0.72748,-2.05019 h 1.82699 l -3.6705,9.61439 q -0.20668,0.52909 -0.44642,0.96723 -0.23974,0.44641 -0.57868,0.76882 -0.33068,0.32241 -0.77709,0.50428 -0.44641,0.18187 -1.05816,0.18187 -0.34721,0 -0.64482,-0.0496 -0.28934,-0.0413 -0.52081,-0.0992 -0.27281,-0.0661 -0.49601,-0.15707 z" />
    <path
       inkscape:connector-curvature="0"
       style="font-style:normal;font-variant:normal;font-weight:500;font-stretch:normal;font-size:63.9896431px;line-height:1.25;font-family:AzbukaW01-Medium;-inkscape-font-specification:'AzbukaW01-Medium, Medium';font-variant-ligatures:normal;font-variant-caps:normal;font-variant-numeric:normal;font-feature-settings:normal;text-align:start;letter-spacing:0px;word-spacing:0px;writing-mode:lr-tb;text-anchor:start;fill:#808080;fill-opacity:1;stroke:none;stroke-width:0.42326167"
       d="m -190.06676,-255.222 -4.08399,12.05301 h 1.98386 l 0.92604,-2.89337 h 0.0139 l 0.98598,-3.03134 1.19063,-3.67316 1.52135,5.12579 h -1.27072 l -0.51315,1.57871 h 2.23863 l 0.86764,2.89337 h 2.00918 l -3.84416,-12.05301 z"
       id="path3597" />
    <path
       inkscape:connector-curvature="0"
       id="path3599"
       style="font-style:normal;font-variant:normal;font-weight:500;font-stretch:normal;font-size:63.9896431px;line-height:1.25;font-family:AzbukaW01-Medium;-inkscape-font-specification:'AzbukaW01-Medium, Medium';font-variant-ligatures:normal;font-variant-caps:normal;font-variant-numeric:normal;font-feature-settings:normal;text-align:start;letter-spacing:0px;word-spacing:0px;writing-mode:lr-tb;text-anchor:start;fill:#808080;fill-opacity:1;stroke:none;stroke-width:0.42326167"
       d="m -178.22045,-244.73959 q 0.56215,0 0.90935,-0.1488 0.34721,-0.15707 0.56215,-0.46295 0.12401,-0.16534 0.20667,-0.39681 0.0827,-0.23147 0.14054,-0.65308 0.0579,-0.42161 0.0827,-1.09123 0.0248,-0.66962 0.0248,-1.70298 0,-1.03336 -0.0248,-1.70298 -0.0248,-0.66962 -0.0827,-1.09123 -0.0579,-0.42161 -0.14054,-0.65308 -0.0827,-0.23148 -0.20667,-0.39682 -0.21494,-0.30587 -0.56215,-0.45467 -0.3472,-0.15707 -0.90935,-0.15707 h -2.96782 v 8.9117 z m -4.82787,1.57071 V -255.222 h 4.7948 q 0.50428,0 0.91762,0.0744 0.42162,0.0661 0.76056,0.1984 0.34721,0.13227 0.62828,0.31415 0.28108,0.18187 0.52082,0.41334 0.2976,0.28934 0.49601,0.71922 0.20667,0.42161 0.32241,1.03336 0.124,0.60348 0.1736,1.41364 0.0579,0.81015 0.0579,1.86005 0,1.04989 -0.0579,1.86005 -0.0496,0.81015 -0.1736,1.4219 -0.11574,0.60349 -0.32241,1.03337 -0.19841,0.42987 -0.49601,0.71095 -0.23974,0.23147 -0.52082,0.42161 -0.28107,0.18187 -0.62828,0.31414 -0.33894,0.124 -0.76056,0.19841 -0.41334,0.0661 -0.91762,0.0661 z" />
    <path
       inkscape:connector-curvature="0"
       id="path3601"
       style="font-style:normal;font-variant:normal;font-weight:500;font-stretch:normal;font-size:63.9896431px;line-height:1.25;font-family:AzbukaW01-Medium;-inkscape-font-specification:'AzbukaW01-Medium, Medium';font-variant-ligatures:normal;font-variant-caps:normal;font-variant-numeric:normal;font-feature-settings:normal;text-align:start;letter-spacing:0px;word-spacing:0px;writing-mode:lr-tb;text-anchor:start;fill:#808080;fill-opacity:1;stroke:none;stroke-width:0.42326167"
       d="M -172.26829,-243.16888 V -255.222 h 1.86832 v 12.05312 z" />
    <path
       inkscape:connector-curvature="0"
       id="path3603"
       style="font-style:normal;font-variant:normal;font-weight:300;font-stretch:normal;font-size:63.98933411px;line-height:1.25;font-family:AzbukaW01-Light;-inkscape-font-specification:'AzbukaW01-Light, Light';font-variant-ligatures:normal;font-variant-caps:normal;font-variant-numeric:normal;font-feature-settings:normal;text-align:start;letter-spacing:0px;word-spacing:0px;writing-mode:lr-tb;text-anchor:start;fill:#808080;fill-opacity:1;stroke:none;stroke-width:0.42326167"
       d="m -168.39112,-247.1287 v -0.83495 h 4.4393 v 0.83495 z" />
    <path
       inkscape:connector-curvature="0"
       id="path3605"
       style="font-style:normal;font-variant:normal;font-weight:300;font-stretch:normal;font-size:63.98933411px;line-height:1.25;font-family:AzbukaW01-Light;-inkscape-font-specification:'AzbukaW01-Light, Light';font-variant-ligatures:normal;font-variant-caps:normal;font-variant-numeric:normal;font-feature-settings:normal;text-align:start;letter-spacing:0px;word-spacing:0px;writing-mode:lr-tb;text-anchor:start;fill:#808080;fill-opacity:1;stroke:none;stroke-width:0.42326167"
       d="m -161.84378,-243.16888 v -12.05307 h 0.90936 v 12.05307 z" />
    <path
       inkscape:connector-curvature="0"
       id="path3607"
       style="font-style:normal;font-variant:normal;font-weight:300;font-stretch:normal;font-size:63.98933411px;line-height:1.25;font-family:AzbukaW01-Light;-inkscape-font-specification:'AzbukaW01-Light, Light';font-variant-ligatures:normal;font-variant-caps:normal;font-variant-numeric:normal;font-feature-settings:normal;text-align:start;letter-spacing:0px;word-spacing:0px;writing-mode:lr-tb;text-anchor:start;fill:#808080;fill-opacity:1;stroke:none;stroke-width:0.42326167"
       d="m -158.40477,-243.16888 v -12.05307 h 0.90936 v 12.05307 z" />
    <path
       inkscape:connector-curvature="0"
       id="path3609"
       style="font-style:normal;font-variant:normal;font-weight:300;font-stretch:normal;font-size:63.98933411px;line-height:1.25;font-family:AzbukaW01-Light;-inkscape-font-specification:'AzbukaW01-Light, Light';font-variant-ligatures:normal;font-variant-caps:normal;font-variant-numeric:normal;font-feature-settings:normal;text-align:start;letter-spacing:0px;word-spacing:0px;writing-mode:lr-tb;text-anchor:start;fill:#808080;fill-opacity:1;stroke:none;stroke-width:0.42326167"
       d="m -147.06265,-244.16917 q -0.23974,0.25627 -0.55388,0.46295 -0.31413,0.1984 -0.73575,0.34721 -0.41334,0.14053 -0.95895,0.21493 -0.54561,0.0744 -1.25656,0.0744 -0.71095,0 -1.25656,-0.0744 -0.54562,-0.0744 -0.96722,-0.21493 -0.41335,-0.14881 -0.72749,-0.34721 -0.31414,-0.20668 -0.55388,-0.46295 -0.28107,-0.28934 -0.47947,-0.71921 -0.19014,-0.42988 -0.31414,-1.03336 -0.11574,-0.61174 -0.17361,-1.41363 -0.0496,-0.81015 -0.0496,-1.86004 0,-1.04989 0.0496,-1.85178 0.0579,-0.81015 0.17361,-1.41363 0.124,-0.61175 0.31414,-1.04162 0.1984,-0.42988 0.47947,-0.71922 0.23974,-0.25627 0.55388,-0.45468 0.31414,-0.20666 0.72749,-0.3472 0.4216,-0.14054 0.96722,-0.21494 0.54561,-0.0827 1.25656,-0.0827 0.71095,0 1.25656,0.0827 0.54561,0.0744 0.95895,0.21494 0.42162,0.14054 0.73575,0.3472 0.31414,0.19841 0.55388,0.45468 0.28108,0.28934 0.47121,0.71922 0.19841,0.42987 0.31415,1.04162 0.124,0.60348 0.1736,1.41363 0.0579,0.80189 0.0579,1.85178 0,1.04989 -0.0579,1.86004 -0.0496,0.80189 -0.1736,1.41363 -0.11574,0.60348 -0.31415,1.03336 -0.19013,0.42987 -0.47121,0.71921 z m -0.62828,-0.61174 q 0.17361,-0.19014 0.30588,-0.46295 0.13227,-0.2728 0.2232,-0.76055 0.0992,-0.48774 0.14881,-1.24829 0.0496,-0.76882 0.0496,-1.94271 0,-1.1739 -0.0496,-1.93445 -0.0496,-0.76881 -0.14881,-1.25656 -0.0909,-0.48774 -0.2232,-0.76055 -0.13227,-0.28107 -0.30588,-0.47121 -0.1984,-0.2232 -0.44641,-0.38854 -0.248,-0.16534 -0.59521,-0.27281 -0.33894,-0.11573 -0.79362,-0.1736 -0.44641,-0.0579 -1.04162,-0.0579 -0.59522,0 -1.04989,0.0579 -0.44641,0.0579 -0.79362,0.1736 -0.33894,0.10747 -0.58695,0.27281 -0.248,0.16534 -0.44641,0.38854 -0.1736,0.19014 -0.30587,0.47121 -0.13227,0.27281 -0.23147,0.76055 -0.0909,0.48775 -0.14054,1.25656 -0.0496,0.76055 -0.0496,1.93445 0,1.17389 0.0496,1.94271 0.0496,0.76055 0.14054,1.24829 0.0992,0.48775 0.23147,0.76055 0.13227,0.27281 0.30587,0.46295 0.19841,0.2232 0.44641,0.3968 0.24801,0.16534 0.58695,0.28108 0.34721,0.10747 0.79362,0.16534 0.45467,0.0579 1.04989,0.0579 0.59521,0 1.04162,-0.0579 0.45468,-0.0579 0.79362,-0.16534 0.34721,-0.11574 0.59521,-0.28108 0.24801,-0.1736 0.44641,-0.3968 z" />
    <text
       xml:space="preserve"
       style="font-style:normal;font-weight:normal;font-size:4.44307566px;line-height:1.25;font-family:sans-serif;letter-spacing:0px;word-spacing:0px;fill:#808080;fill-opacity:1;stroke:none;stroke-width:0.11107688;"
       x="-227.62921"
       y="-235.12148"
       id="text1626-0"><tspan
         sodipodi:role="line"
         id="tspan1624-8"
         x="-227.62921"
         y="-235.12148"
         style="font-style:normal;font-variant:normal;font-weight:500;font-stretch:normal;font-size:4.44307566px;font-family:AzbukaW01-Medium;-inkscape-font-specification:'AzbukaW01-Medium, Medium';font-variant-ligatures:normal;font-variant-caps:normal;font-variant-numeric:normal;font-feature-settings:normal;text-align:start;writing-mode:lr-tb;text-anchor:start;stroke-width:0.11107688;fill:#808080;fill-opacity:1;">PYTHON FOR ADI INDUSTRIAL I/O DEVICES</tspan></text>
    <g
       id="g12-6-9"
       transform="matrix(0.03527778,0,0,-0.03527778,-301.47802,-234.92023)"
       style="fill:#808080;fill-opacity:1">
      <path
         inkscape:connector-curvature="0"
         d="M 40.2148,76.3867 27.1133,35.9766 H 52.207 Z M 62.6367,0.78125 55.7891,23.5938 H 22.9453 L 15.6445,0.78125 H 0 L 32.1992,95.8086 H 48.1641 L 78.4727,0.78125 h -15.836"
         style="fill:#808080;fill-opacity:1;fill-rule:nonzero;stroke:none"
         id="path14-6-1" />
      <path
         inkscape:connector-curvature="0"
         d="M 141.824,0.78125 V 42.0391 H 103.109 V 0.78125 H 88.4492 V 95.8086 H 103.109 V 54.4219 h 38.715 v 41.3867 h 14.664 V 0.78125 h -14.664"
         style="fill:#808080;fill-opacity:1;fill-rule:nonzero;stroke:none"
         id="path16-4-7" />
      <path
         inkscape:connector-curvature="0"
         d="M 175.063,0.78125 V 95.8086 h 57.679 V 83.4258 H 189.727 V 54.4219 h 31.675 V 42.0391 h -31.675 v -28.875 h 43.015 V 0.78125 h -57.679"
         style="fill:#808080;fill-opacity:1;fill-rule:nonzero;stroke:none"
         id="path18-9-7" />
      <path
         inkscape:connector-curvature="0"
         d="M 278.238,76.3867 265.137,35.9766 H 290.23 Z M 300.66,0.78125 293.813,23.5938 H 260.969 L 253.668,0.78125 h -15.645 l 32.196,95.02735 h 15.969 L 316.492,0.78125 H 300.66"
         style="fill:#808080;fill-opacity:1;fill-rule:nonzero;stroke:none"
         id="path20-5-1" />
      <path
         inkscape:connector-curvature="0"
         d="m 364.527,13.1641 c 2.953,0 5.344,0.4023 7.168,1.207 1.825,0.8047 3.305,2.0078 4.434,3.6172 0.652,0.8672 1.195,1.9101 1.629,3.1289 0.433,1.2148 0.801,2.9336 1.109,5.1484 0.305,2.2149 0.52,5.086 0.649,8.6016 0.132,3.5195 0.195,7.9961 0.195,13.4258 0,5.4336 -0.063,9.9062 -0.195,13.4297 -0.129,3.5156 -0.344,6.3867 -0.649,8.6015 -0.308,2.2149 -0.676,3.9336 -1.109,5.1485 -0.434,1.2148 -0.977,2.2578 -1.629,3.1289 -1.129,1.6054 -2.609,2.8125 -4.434,3.6172 -1.824,0.8046 -4.215,1.207 -7.168,1.207 H 341.129 V 13.1641 Z M 326.465,0.78125 V 95.8086 h 37.805 c 2.644,0 5.07,-0.1875 7.261,-0.5547 2.196,-0.3711 4.196,-0.9023 5.996,-1.5976 1.805,-0.6954 3.446,-1.5196 4.922,-2.4766 1.477,-0.957 2.848,-2.043 4.11,-3.2578 1.562,-1.5235 2.875,-3.4024 3.937,-5.6367 1.067,-2.2383 1.914,-4.9571 2.547,-8.1485 0.629,-3.1953 1.082,-6.9179 1.367,-11.1758 0.281,-4.2617 0.426,-9.1484 0.426,-14.6679 0,-5.5157 -0.145,-10.4063 -0.426,-14.6641 -0.285,-4.2578 -0.738,-7.9805 -1.367,-11.1758 -0.633,-3.1914 -1.48,-5.9218 -2.547,-8.1797 -1.062,-2.2578 -2.375,-4.1289 -3.937,-5.60543 -1.262,-1.21875 -2.633,-2.3125 -4.11,-3.28906 -1.476,-0.98047 -3.117,-1.80469 -4.922,-2.48047 -1.8,-0.67188 -3.8,-1.19531 -5.996,-1.5625 -2.191,-0.371096 -4.617,-0.55469 -7.261,-0.55469 h -37.805"
         style="fill:#808080;fill-opacity:1;fill-rule:nonzero;stroke:none"
         id="path22-0-1" />
      <path
         inkscape:connector-curvature="0"
         d="m 497.938,18.5117 c 0.656,0.8672 1.226,1.9219 1.73,3.1602 0.5,1.2383 0.898,2.9531 1.207,5.1484 0.301,2.1914 0.531,5.0078 0.684,8.4414 0.152,3.4297 0.226,7.7735 0.226,13.0313 0,5.2578 -0.074,9.6172 -0.226,13.0703 -0.153,3.4531 -0.383,6.2656 -0.684,8.4414 -0.309,2.1719 -0.707,3.875 -1.207,5.1133 -0.504,1.2383 -1.074,2.2929 -1.73,3.1601 -1.52,2 -3.625,3.5235 -6.321,4.5625 -2.695,1.043 -6.363,1.5664 -11.015,1.5664 -4.696,0 -8.375,-0.5234 -11.047,-1.5664 -2.668,-1.039 -4.77,-2.5625 -6.289,-4.5625 -0.653,-0.8672 -1.231,-1.9218 -1.727,-3.1601 -0.5,-1.2383 -0.914,-2.9414 -1.234,-5.1133 -0.328,-2.1758 -0.571,-4.9883 -0.719,-8.4414 -0.152,-3.4531 -0.231,-7.8125 -0.231,-13.0703 0,-5.2578 0.079,-9.6016 0.231,-13.0313 0.148,-3.4336 0.391,-6.25 0.719,-8.4414 0.32,-2.1953 0.734,-3.9101 1.234,-5.1484 0.496,-1.2383 1.074,-2.293 1.727,-3.1602 1.519,-2 3.621,-3.5234 6.289,-4.5664 2.672,-1.039 6.351,-1.5625 11.047,-1.5625 4.652,0 8.32,0.5235 11.015,1.5625 2.696,1.043 4.801,2.5664 6.321,4.5664 z M 508.762,8.66797 C 507.457,7.32031 505.969,6.11328 504.293,5.05078 502.621,3.98438 500.664,3.07422 498.43,2.3125 496.191,1.55469 493.605,0.976563 490.676,0.585938 487.738,0.195313 484.387,0 480.602,0 c -3.825,0 -7.188,0.195313 -10.098,0.585938 -2.914,0.390625 -5.488,0.968752 -7.727,1.726562 -2.242,0.76172 -4.191,1.67188 -5.863,2.73828 -1.676,1.0625 -3.164,2.26953 -4.469,3.61719 -1.515,1.51953 -2.793,3.41013 -3.812,5.67183 -1.02,2.2579 -1.856,4.9844 -2.512,8.1797 -0.648,3.1914 -1.117,6.9063 -1.398,11.1446 -0.285,4.2343 -0.422,9.1132 -0.422,14.6289 0,5.5195 0.137,10.3984 0.422,14.6328 0.281,4.2383 0.75,7.9531 1.398,11.1445 0.656,3.1953 1.492,5.9219 2.512,8.1836 1.019,2.2578 2.297,4.1445 3.812,5.668 1.305,1.3437 2.793,2.5508 4.469,3.6172 1.672,1.0625 3.621,1.9648 5.863,2.7031 2.239,0.7383 4.813,1.3164 7.727,1.7266 2.91,0.414 6.273,0.621 10.098,0.621 3.785,0 7.136,-0.207 10.074,-0.621 2.929,-0.4102 5.515,-0.9883 7.754,-1.7266 2.234,-0.7383 4.191,-1.6406 5.863,-2.7031 1.676,-1.0664 3.164,-2.2735 4.469,-3.6172 1.472,-1.5235 2.73,-3.4102 3.777,-5.668 1.047,-2.2617 1.891,-4.9883 2.543,-8.1836 0.648,-3.1914 1.117,-6.9062 1.402,-11.1445 0.278,-4.2344 0.418,-9.1133 0.418,-14.6328 0,-5.5157 -0.14,-10.3946 -0.418,-14.6289 -0.285,-4.2383 -0.754,-7.9532 -1.402,-11.1446 -0.652,-3.1953 -1.496,-5.9218 -2.543,-8.1797 -1.047,-2.2617 -2.305,-4.1523 -3.777,-5.67183"
         style="fill:#808080;fill-opacity:1;fill-rule:nonzero;stroke:none"
         id="path24-4-5" />
      <path
         inkscape:connector-curvature="0"
         d="M 534.242,0.78125 V 95.8086 h 57.684 V 83.4258 h -43.02 V 54.4219 h 31.676 V 42.0391 H 548.906 V 0.78125 h -14.664"
         style="fill:#808080;fill-opacity:1;fill-rule:nonzero;stroke:none"
         id="path26-8-9" />
      <path
         inkscape:connector-curvature="0"
         d="M 703.766,0.78125 687.602,56.832 670.66,0.78125 h -15.902 l -24.57,95.02735 h 15.503 l 17.207,-74.8867 17.926,57.289 h 14.274 l 16.55,-56.4414 18.122,74.0391 h 15.511 L 719.34,0.78125 h -15.574"
         style="fill:#808080;fill-opacity:1;fill-rule:nonzero;stroke:none"
         id="path28-7-7" />
      <path
         inkscape:connector-curvature="0"
         d="M 809.414,0.78125 V 42.0391 H 770.699 V 0.78125 H 756.035 V 95.8086 h 14.664 V 54.4219 h 38.715 v 41.3867 h 14.664 V 0.78125 h -14.664"
         style="fill:#808080;fill-opacity:1;fill-rule:nonzero;stroke:none"
         id="path30-1-7" />
      <path
         inkscape:connector-curvature="0"
         d="M 874.324,76.3867 861.227,35.9766 h 25.089 z M 896.746,0.78125 889.902,23.5938 H 857.055 L 849.758,0.78125 h -15.649 l 32.2,95.02735 h 15.964 L 912.582,0.78125 h -15.836"
         style="fill:#808080;fill-opacity:1;fill-rule:nonzero;stroke:none"
         id="path32-7-6" />
      <path
         inkscape:connector-curvature="0"
         d="M 931.227,0.78125 V 83.4258 h -24.18 v 12.3828 h 63.019 V 83.4258 H 945.891 V 0.78125 h -14.664"
         style="fill:#808080;fill-opacity:1;fill-rule:nonzero;stroke:none"
         id="path34-2-7" />
      <path
         inkscape:connector-curvature="0"
         d="m 978.547,70.8477 c 1.433,0.0859 2.598,0.2812 3.484,0.582 0.891,0.3047 1.586,0.7734 2.086,1.4023 0.496,0.6328 0.832,1.4688 1.012,2.5118 0.176,1.0429 0.258,2.3437 0.258,3.9101 v 2.8008 h -6.125 v 13.7539 h 13.035 V 80.7539 c 0,-2.6953 -0.207,-4.9453 -0.617,-6.7461 -0.414,-1.8047 -1.09,-3.293 -2.024,-4.4648 -0.933,-1.1758 -2.152,-2.1094 -3.648,-2.8047 -1.5,-0.6914 -3.356,-1.2383 -5.574,-1.6289 l -1.887,5.7383"
         style="fill:#808080;fill-opacity:1;fill-rule:nonzero;stroke:none"
         id="path36-7-3" />
      <path
         inkscape:connector-curvature="0"
         d="m 1053.75,72.4766 c -0.08,1.2578 -0.31,2.582 -0.68,3.9726 -0.36,1.3906 -1.14,2.6641 -2.31,3.8125 -1.18,1.1524 -2.89,2.0977 -5.15,2.836 -2.26,0.7382 -5.37,1.1093 -9.32,1.1093 -6.17,0 -10.89,-1.0664 -14.18,-3.1953 -3.28,-2.1289 -4.92,-5.5195 -4.92,-10.164 0,-2.3907 0.58,-4.293 1.73,-5.7071 1.15,-1.4101 2.71,-2.5195 4.66,-3.3242 1.96,-0.8008 4.21,-1.3984 6.78,-1.7891 2.56,-0.3906 5.26,-0.7421 8.08,-1.0429 2.21,-0.2617 4.54,-0.586 6.98,-0.9766 2.43,-0.3945 4.8,-0.957 7.13,-1.6953 2.32,-0.7422 4.54,-1.7187 6.65,-2.9336 2.1,-1.2187 3.95,-2.8047 5.54,-4.7578 1.58,-1.9531 2.84,-4.3438 3.78,-7.1719 0.93,-2.8242 1.4,-6.1875 1.4,-10.0976 0,-5.1289 -0.79,-9.6485 -2.38,-13.5586 -1.58,-3.9102 -3.85,-7.1797 -6.81,-9.80862 -2.96,-2.62891 -6.55,-4.61719 -10.78,-5.96485 C 1045.71,0.675781 1040.94,0 1035.64,0 c -5.39,0 -9.95,0.660156 -13.69,1.98828 -3.74,1.32422 -6.83,2.9961 -9.28,5.01953 -2.46,2.01953 -4.38,4.23439 -5.78,6.64449 -1.39,2.4141 -2.41,4.7383 -3.06,6.9766 -0.65,2.2383 -1.05,4.2149 -1.2,5.9297 -0.15,1.7148 -0.23,2.8789 -0.23,3.4883 h 14.53 c 0,-2.086 0.31,-4.1719 0.92,-6.2578 0.6,-2.086 1.62,-3.9766 3.06,-5.6719 1.43,-1.6914 3.34,-3.0703 5.74,-4.1367 2.38,-1.0664 5.38,-1.5977 8.99,-1.5977 2.95,0 5.61,0.3711 7.98,1.1094 2.37,0.7383 4.39,1.8476 6.06,3.3242 1.68,1.4766 2.96,3.3242 3.85,5.5391 0.89,2.2148 1.33,4.7812 1.33,7.6914 0,3.039 -0.51,5.4531 -1.56,7.2344 -1.04,1.7812 -2.59,3.1679 -4.63,4.1679 -2.04,1 -4.59,1.7617 -7.65,2.2813 -3.07,0.5234 -6.64,1.0664 -10.73,1.6328 -3.52,0.5195 -6.94,1.1914 -10.26,2.0195 -3.33,0.8242 -6.28,2.086 -8.86,3.7813 -2.59,1.6914 -4.68,3.9648 -6.26,6.8086 -1.59,2.8476 -2.38,6.5312 -2.38,11.0468 0,0.9141 0.1,2.2383 0.29,3.9766 0.2,1.7383 0.65,3.6289 1.37,5.6719 0.72,2.0429 1.77,4.125 3.16,6.2578 1.39,2.125 3.3,4.0469 5.74,5.7656 2.43,1.7149 5.46,3.1289 9.09,4.2383 3.63,1.1055 8.03,1.6601 13.2,1.6601 4.47,0 8.21,-0.2382 11.21,-0.7187 2.99,-0.4766 5.49,-1.1172 7.49,-1.9219 2,-0.8047 3.61,-1.707 4.83,-2.7031 1.21,-1 2.3,-2.0234 3.25,-3.0625 2.09,-2.2188 3.58,-4.6836 4.47,-7.3984 0.89,-2.7188 1.33,-5.4844 1.33,-8.3086 h -14.21"
         style="fill:#808080;fill-opacity:1;fill-rule:nonzero;stroke:none"
         id="path38-2-6" />
      <path
         inkscape:connector-curvature="0"
         d="m 1150.28,47.0547 c 1.91,0 3.91,0.3047 6,0.9141 2.08,0.6093 3.99,1.6132 5.73,3.0039 1.74,1.3945 3.18,3.2539 4.3,5.5859 1.14,2.3281 1.7,5.2109 1.7,8.6484 0,2.4805 -0.34,4.8203 -1.01,7.0196 -0.68,2.1992 -1.65,4.1328 -2.93,5.8086 -1.29,1.6796 -2.86,2.9961 -4.73,3.9531 -1.87,0.957 -4,1.4375 -6.39,1.4375 h -19.81 V 47.0547 Z M 1118.48,0.78125 V 95.8086 h 36.3 c 4.43,0 8.39,-0.7188 11.89,-2.1523 3.5,-1.4336 6.46,-3.4844 8.9,-6.1563 2.43,-2.6758 4.29,-5.8906 5.57,-9.6484 1.28,-3.7578 1.93,-7.961 1.93,-12.6133 0,-4.6485 -0.72,-8.8516 -2.16,-12.6094 -1.43,-3.7578 -3.41,-6.9648 -5.92,-9.6133 -2.53,-2.6523 -5.51,-4.7031 -8.97,-6.1601 -3.45,-1.4571 -7.2,-2.1797 -11.24,-2.1797 h -21.64 V 0.78125 h -14.66"
         style="fill:#808080;fill-opacity:1;fill-rule:nonzero;stroke:none"
         id="path40-2-5" />
      <path
         inkscape:connector-curvature="0"
         d="m 1249.02,18.5117 c 0.66,0.8672 1.23,1.9219 1.73,3.1602 0.5,1.2383 0.9,2.9531 1.21,5.1484 0.3,2.1914 0.53,5.0078 0.68,8.4414 0.15,3.4297 0.23,7.7735 0.23,13.0313 0,5.2578 -0.08,9.6172 -0.23,13.0703 -0.15,3.4531 -0.38,6.2656 -0.68,8.4414 -0.31,2.1719 -0.71,3.875 -1.21,5.1133 -0.5,1.2383 -1.07,2.2929 -1.73,3.1601 -1.52,2 -3.62,3.5235 -6.32,4.5625 -2.7,1.043 -6.36,1.5664 -11.02,1.5664 -4.69,0 -8.37,-0.5234 -11.04,-1.5664 -2.67,-1.039 -4.77,-2.5625 -6.29,-4.5625 -0.65,-0.8672 -1.23,-1.9218 -1.73,-3.1601 -0.5,-1.2383 -0.91,-2.9414 -1.23,-5.1133 -0.33,-2.1758 -0.57,-4.9883 -0.72,-8.4414 -0.15,-3.4531 -0.23,-7.8125 -0.23,-13.0703 0,-5.2578 0.08,-9.6016 0.23,-13.0313 0.15,-3.4336 0.39,-6.25 0.72,-8.4414 0.32,-2.1953 0.73,-3.9101 1.23,-5.1484 0.5,-1.2383 1.08,-2.293 1.73,-3.1602 1.52,-2 3.62,-3.5234 6.29,-4.5664 2.67,-1.039 6.35,-1.5625 11.04,-1.5625 4.66,0 8.32,0.5235 11.02,1.5625 2.7,1.043 4.8,2.5664 6.32,4.5664 z m 10.82,-9.84373 c -1.3,-1.34766 -2.79,-2.55469 -4.46,-3.61719 -1.67,-1.0664 -3.63,-1.97656 -5.87,-2.73828 -2.23,-0.75781 -4.82,-1.335937 -7.75,-1.726562 C 1238.82,0.195313 1235.47,0 1231.68,0 c -3.82,0 -7.18,0.195313 -10.09,0.585938 -2.92,0.390625 -5.49,0.968752 -7.73,1.726562 -2.24,0.76172 -4.19,1.67188 -5.86,2.73828 -1.68,1.0625 -3.17,2.26953 -4.47,3.61719 -1.52,1.51953 -2.79,3.41013 -3.81,5.67183 -1.02,2.2579 -1.86,4.9844 -2.51,8.1797 -0.65,3.1914 -1.12,6.9063 -1.4,11.1446 -0.29,4.2343 -0.42,9.1132 -0.42,14.6289 0,5.5195 0.13,10.3984 0.42,14.6328 0.28,4.2383 0.75,7.9531 1.4,11.1445 0.65,3.1953 1.49,5.9219 2.51,8.1836 1.02,2.2578 2.29,4.1445 3.81,5.668 1.3,1.3437 2.79,2.5508 4.47,3.6172 1.67,1.0625 3.62,1.9648 5.86,2.7031 2.24,0.7383 4.81,1.3164 7.73,1.7266 2.91,0.414 6.27,0.621 10.09,0.621 3.79,0 7.14,-0.207 10.08,-0.621 2.93,-0.4102 5.52,-0.9883 7.75,-1.7266 2.24,-0.7383 4.2,-1.6406 5.87,-2.7031 1.67,-1.0664 3.16,-2.2735 4.46,-3.6172 1.48,-1.5235 2.74,-3.4102 3.78,-5.668 1.05,-2.2617 1.89,-4.9883 2.55,-8.1836 0.65,-3.1914 1.12,-6.9062 1.4,-11.1445 0.28,-4.2344 0.42,-9.1133 0.42,-14.6328 0,-5.5157 -0.14,-10.3946 -0.42,-14.6289 -0.28,-4.2383 -0.75,-7.9532 -1.4,-11.1446 -0.66,-3.1953 -1.5,-5.9218 -2.55,-8.1797 -1.04,-2.2617 -2.3,-4.1523 -3.78,-5.67183"
         style="fill:#808080;fill-opacity:1;fill-rule:nonzero;stroke:none"
         id="path42-6-6" />
      <path
         inkscape:connector-curvature="0"
         d="m 1333.35,72.4766 c -0.08,1.2578 -0.31,2.582 -0.68,3.9726 -0.37,1.3906 -1.14,2.6641 -2.31,3.8125 -1.18,1.1524 -2.89,2.0977 -5.15,2.836 -2.26,0.7382 -5.37,1.1093 -9.32,1.1093 -6.17,0 -10.89,-1.0664 -14.18,-3.1953 -3.28,-2.1289 -4.92,-5.5195 -4.92,-10.164 0,-2.3907 0.58,-4.293 1.73,-5.7071 1.15,-1.4101 2.71,-2.5195 4.66,-3.3242 1.96,-0.8008 4.21,-1.3984 6.78,-1.7891 2.56,-0.3906 5.25,-0.7421 8.08,-1.0429 2.21,-0.2617 4.54,-0.586 6.97,-0.9766 2.44,-0.3945 4.81,-0.957 7.14,-1.6953 2.32,-0.7422 4.54,-1.7187 6.65,-2.9336 2.1,-1.2187 3.95,-2.8047 5.54,-4.7578 1.58,-1.9531 2.84,-4.3438 3.78,-7.1719 0.93,-2.8242 1.4,-6.1875 1.4,-10.0976 0,-5.1289 -0.79,-9.6485 -2.38,-13.5586 -1.58,-3.9102 -3.85,-7.1797 -6.81,-9.80862 -2.96,-2.62891 -6.55,-4.61719 -10.78,-5.96485 C 1325.31,0.675781 1320.54,0 1315.24,0 c -5.39,0 -9.95,0.660156 -13.69,1.98828 -3.74,1.32422 -6.83,2.9961 -9.28,5.01953 -2.46,2.01953 -4.38,4.23439 -5.78,6.64449 -1.39,2.4141 -2.41,4.7383 -3.06,6.9766 -0.65,2.2383 -1.05,4.2149 -1.2,5.9297 -0.15,1.7148 -0.23,2.8789 -0.23,3.4883 h 14.53 c 0,-2.086 0.31,-4.1719 0.92,-6.2578 0.6,-2.086 1.62,-3.9766 3.06,-5.6719 1.43,-1.6914 3.34,-3.0703 5.74,-4.1367 2.38,-1.0664 5.38,-1.5977 8.99,-1.5977 2.95,0 5.61,0.3711 7.98,1.1094 2.37,0.7383 4.39,1.8476 6.06,3.3242 1.68,1.4766 2.96,3.3242 3.85,5.5391 0.89,2.2148 1.33,4.7812 1.33,7.6914 0,3.039 -0.51,5.4531 -1.56,7.2344 -1.04,1.7812 -2.59,3.1679 -4.63,4.1679 -2.04,1 -4.59,1.7617 -7.65,2.2813 -3.07,0.5234 -6.65,1.0664 -10.73,1.6328 -3.52,0.5195 -6.94,1.1914 -10.26,2.0195 -3.33,0.8242 -6.28,2.086 -8.86,3.7813 -2.59,1.6914 -4.68,3.9648 -6.26,6.8086 -1.59,2.8476 -2.38,6.5312 -2.38,11.0468 0,0.9141 0.1,2.2383 0.29,3.9766 0.2,1.7383 0.65,3.6289 1.37,5.6719 0.72,2.0429 1.77,4.125 3.16,6.2578 1.39,2.125 3.3,4.0469 5.74,5.7656 2.43,1.7149 5.46,3.1289 9.09,4.2383 3.63,1.1055 8.02,1.6601 13.2,1.6601 4.47,0 8.21,-0.2382 11.21,-0.7187 2.99,-0.4766 5.49,-1.1172 7.49,-1.9219 2,-0.8047 3.61,-1.707 4.83,-2.7031 1.21,-1 2.3,-2.0234 3.25,-3.0625 2.09,-2.2188 3.58,-4.6836 4.47,-7.3984 0.89,-2.7188 1.33,-5.4844 1.33,-8.3086 h -14.21"
         style="fill:#808080;fill-opacity:1;fill-rule:nonzero;stroke:none"
         id="path44-1-3" />
      <path
         inkscape:connector-curvature="0"
         d="m 1412.74,72.4766 c -0.09,1.2578 -0.31,2.582 -0.68,3.9726 -0.37,1.3906 -1.14,2.6641 -2.32,3.8125 -1.17,1.1524 -2.89,2.0977 -5.15,2.836 -2.26,0.7382 -5.36,1.1093 -9.32,1.1093 -6.17,0 -10.89,-1.0664 -14.17,-3.1953 -3.28,-2.1289 -4.92,-5.5195 -4.92,-10.164 0,-2.3907 0.57,-4.293 1.73,-5.7071 1.15,-1.4101 2.7,-2.5195 4.65,-3.3242 1.96,-0.8008 4.22,-1.3984 6.78,-1.7891 2.56,-0.3906 5.26,-0.7421 8.09,-1.0429 2.21,-0.2617 4.53,-0.586 6.97,-0.9766 2.43,-0.3945 4.81,-0.957 7.13,-1.6953 2.33,-0.7422 4.54,-1.7187 6.65,-2.9336 2.11,-1.2187 3.96,-2.8047 5.54,-4.7578 1.59,-1.9531 2.85,-4.3438 3.78,-7.1719 0.94,-2.8242 1.41,-6.1875 1.41,-10.0976 0,-5.1289 -0.8,-9.6485 -2.39,-13.5586 -1.58,-3.9102 -3.85,-7.1797 -6.8,-9.80862 -2.96,-2.62891 -6.56,-4.61719 -10.79,-5.96485 C 1404.69,0.675781 1399.92,0 1394.62,0 c -5.39,0 -9.95,0.660156 -13.68,1.98828 -3.74,1.32422 -6.84,2.9961 -9.29,5.01953 -2.46,2.01953 -4.38,4.23439 -5.77,6.64449 -1.39,2.4141 -2.41,4.7383 -3.06,6.9766 -0.66,2.2383 -1.06,4.2149 -1.21,5.9297 -0.15,1.7148 -0.23,2.8789 -0.23,3.4883 h 14.54 c 0,-2.086 0.3,-4.1719 0.91,-6.2578 0.61,-2.086 1.63,-3.9766 3.06,-5.6719 1.44,-1.6914 3.35,-3.0703 5.74,-4.1367 2.39,-1.0664 5.39,-1.5977 8.99,-1.5977 2.96,0 5.62,0.3711 7.99,1.1094 2.37,0.7383 4.38,1.8476 6.06,3.3242 1.67,1.4766 2.95,3.3242 3.84,5.5391 0.89,2.2148 1.34,4.7812 1.34,7.6914 0,3.039 -0.52,5.4531 -1.56,7.2344 -1.05,1.7812 -2.59,3.1679 -4.63,4.1679 -2.04,1 -4.6,1.7617 -7.66,2.2813 -3.06,0.5234 -6.64,1.0664 -10.72,1.6328 -3.52,0.5195 -6.94,1.1914 -10.27,2.0195 -3.32,0.8242 -6.28,2.086 -8.86,3.7813 -2.59,1.6914 -4.67,3.9648 -6.26,6.8086 -1.59,2.8476 -2.38,6.5312 -2.38,11.0468 0,0.9141 0.1,2.2383 0.3,3.9766 0.19,1.7383 0.65,3.6289 1.36,5.6719 0.72,2.0429 1.78,4.125 3.17,6.2578 1.38,2.125 3.3,4.0469 5.73,5.7656 2.44,1.7149 5.46,3.1289 9.09,4.2383 3.63,1.1055 8.03,1.6601 13.2,1.6601 4.48,0 8.21,-0.2382 11.21,-0.7187 3,-0.4766 5.5,-1.1172 7.5,-1.9219 1.99,-0.8047 3.6,-1.707 4.82,-2.7031 1.22,-1 2.3,-2.0234 3.26,-3.0625 2.08,-2.2188 3.57,-4.6836 4.47,-7.3984 0.88,-2.7188 1.33,-5.4844 1.33,-8.3086 h -14.21"
         style="fill:#808080;fill-opacity:1;fill-rule:nonzero;stroke:none"
         id="path46-0-9" />
      <path
         inkscape:connector-curvature="0"
         d="m 1444.35,0.78125 h 14.668 v 95.0273 h -14.668 z"
         style="fill:#808080;fill-opacity:1;fill-rule:nonzero;stroke:none"
         id="path48-6-4" />
      <path
         inkscape:connector-curvature="0"
         d="m 1516.18,13.1641 c 2.25,0 4.25,0.457 5.99,1.3711 1.74,0.9101 3.2,2.082 4.37,3.5195 1.17,1.4336 2.05,3.0195 2.63,4.7578 0.6,1.7383 0.89,3.4297 0.89,5.082 0,2.2149 -0.32,4.1914 -0.95,5.9297 -0.63,1.7383 -1.52,3.2188 -2.67,4.4336 -1.15,1.2149 -2.53,2.1524 -4.14,2.8008 -1.61,0.6523 -3.39,0.9805 -5.34,0.9805 h -24.45 v -28.875 z m -3.2,41.2578 c 2.87,0 5.3,0.4765 7.3,1.4336 2,0.9531 3.62,2.1523 4.86,3.582 1.23,1.4375 2.14,2.9883 2.7,4.6641 0.56,1.6718 0.85,3.2031 0.85,4.5937 0,5.1719 -1.47,8.918 -4.4,11.2422 -2.93,2.3242 -7.16,3.4883 -12.68,3.4883 h -19.1 V 54.4219 Z M 1477.85,0.78125 V 95.8086 h 38.59 c 4.17,0 7.73,-0.5234 10.68,-1.5664 2.96,-1.043 5.46,-2.3672 7.5,-3.9727 2.04,-1.6093 3.66,-3.4023 4.85,-5.3789 1.2,-1.9765 2.12,-3.8984 2.78,-5.7656 0.65,-1.8711 1.07,-3.5664 1.27,-5.0859 0.19,-1.5196 0.29,-2.6289 0.29,-3.3243 0,-1.6523 -0.16,-3.4335 -0.49,-5.3437 -0.33,-1.9141 -0.94,-3.8242 -1.83,-5.7344 -0.88,-1.914 -2.09,-3.75 -3.61,-5.5078 -1.52,-1.7617 -3.46,-3.293 -5.8,-4.5976 4.3,-2.043 7.54,-4.875 9.74,-8.504 2.19,-3.6289 3.29,-7.789 3.29,-12.4804 0,-1.043 -0.09,-2.4571 -0.26,-4.2383 -0.17,-1.7813 -0.59,-3.6914 -1.24,-5.7344 -0.65,-2.0429 -1.59,-4.1289 -2.83,-6.2578 -1.24,-2.1289 -2.92,-4.03906 -5.05,-5.73437 -2.13,-1.6914 -4.77,-3.08594 -7.92,-4.17187 -3.15,-1.08594 -6.94,-1.62891 -11.37,-1.62891 h -38.59"
         style="fill:#808080;fill-opacity:1;fill-rule:nonzero;stroke:none"
         id="path50-1-8" />
      <path
         inkscape:connector-curvature="0"
         d="M 1560.3,0.78125 V 95.8086 h 14.66 V 13.1641 h 37.02 V 0.78125 h -51.68"
         style="fill:#808080;fill-opacity:1;fill-rule:nonzero;stroke:none"
         id="path52-5-1" />
      <path
         inkscape:connector-curvature="0"
         d="M 1623.52,0.78125 V 95.8086 h 57.68 V 83.4258 h -43.02 V 54.4219 h 31.68 V 42.0391 h -31.68 v -28.875 h 43.02 V 0.78125 h -57.68"
         style="fill:#808080;fill-opacity:1;fill-rule:nonzero;stroke:none"
         id="path54-9-2" />
      <path
         inkscape:connector-curvature="0"
         d="m 1706.46,50.2578 v 39.7031 h -11.61 v 5.9493 h 30.28 v -5.9493 h -11.62 V 50.2578 h -7.05"
         style="fill:#808080;fill-opacity:1;fill-rule:nonzero;stroke:none"
         id="path56-4-9" />
      <path
         inkscape:connector-curvature="0"
         d="M 1764.9,50.2578 V 83.668 l -11.21,-23.1407 h -5.67 l -10.89,22.8282 V 50.2578 h -6.67 v 45.6524 h 7.83 l 12.77,-26.8047 12.81,26.8047 h 7.7 V 50.2578 h -6.67"
         style="fill:#808080;fill-opacity:1;fill-rule:nonzero;stroke:none"
         id="path58-9-3" />
      <path
         inkscape:connector-curvature="0"
         d="M 5.14844,706.73 H 472.512 V 236.852 H 5.14844 Z M 101.336,633.586 V 296.465 L 394.379,468.777 Z M 629.813,241.84 h -80.649 v 209.414 h 81.137 c 60.121,0 96.183,-47.586 96.183,-108.195 0,-60.629 -32.046,-101.219 -96.671,-101.219 m 71.621,256.976 -16,46.594 H 608.27 l -14.036,-46.594 h -42.07 l 70.629,209.899 h 42.578 L 744.52,498.816 Z m -75.129,-83.14 H 593.238 V 274.418 h 35.582 c 47.078,0 54.098,40.082 53.59,70.629 0,24.055 -11.523,70.629 -56.105,70.629 m 44.582,171.824 -26.551,77.141 -23.527,-76.657 -1.524,-13 h 52.11 c 0,6.996 0.507,8.5 -0.508,12.516 M 741.535,241.84 V 451.254 H 895.816 V 416.18 h -112.23 v -44.582 h 99.187 v -38.075 h -98.679 v -56.105 h 115.23 V 241.84 Z M 886.789,498.816 794.621,640.605 V 498.816 h -42.07 v 209.899 h 43.086 l 88.636,-139.754 v 139.754 h 42.09 V 498.816 Z M 1018.53,242.348 h -40.077 l -69.105,197.871 v 11.035 h 42.047 l 47.097,-153.285 46.088,152.777 h 41.07 V 439.73 Z m 66.64,256.468 -16.05,46.594 h -77.136 l -14.015,-46.594 h -42.09 l 70.631,209.899 h 42.59 l 79.13,-209.899 z m -30.08,87.692 -26.54,79.125 -26.57,-79.125 v -11.524 h 54.12 c 0,6.996 0,8.012 -1.01,11.524 m 43.59,-135.762 h 44.58 V 242.348 h -44.58 z m 38.56,48.07 v 209.899 h 41.6 v -174.32 h 93.65 v -35.579 z m 116.73,-261.964 c -114.7,-2.516 -134.77,218.902 0.49,217.402 75.15,0 88.17,-62.617 91.17,-72.129 h -41.58 c -6.51,13 -23.55,38.051 -44.56,39.574 -74.14,4.989 -74.14,-151.785 0,-151.785 35.56,0 44.08,35.559 46.06,39.555 h 40.59 c 0,-0.489 -5.03,-71.625 -92.17,-72.617 m 115.21,258.476 c -134.76,0 -129.73,217.406 1.5,216.391 126.74,-0.992 130.25,-216.391 -1.5,-216.391 m -1.5,35.051 c 77.63,-0.484 77.63,144.789 1.5,145.781 -75.63,0.508 -78.15,-145.273 -1.5,-145.781 M 1353.65,241.84 v 209.414 h 148.76 v -38.098 h -108.68 v -43.058 h 96.16 v -37.567 h -95.68 v -55.113 h 113.23 V 241.84 Z m 282.53,262.008 v 20.019 c -4.5,-3.992 -24.56,-29.551 -62.13,-28.539 -128.21,3.004 -128.74,213.387 6.03,215.902 32.53,0 59.59,-20.546 70.12,-35.07 12.53,-16.531 13.53,-30.566 14.03,-34.078 h -35.57 c -8.02,13.047 -20.55,35.074 -50.08,35.074 -78.16,0.992 -83.15,-146.777 -0.51,-148.258 36.57,-0.992 55.09,37.059 55.09,37.547 v 11.035 h -50.08 v 32.555 h 86.14 V 503.848 Z m -39.09,-267.504 c -88.66,0 -87.66,68.133 -87.66,68.133 h 40.08 c 0,0 -3.02,-33.063 41.6,-36.067 11.02,-0.504 47.08,3.996 47.08,29.051 0,29.043 -36.59,27.566 -59.61,34.055 -23.07,6.027 -66.64,16.047 -66.64,56.613 0,35.559 29.05,66.125 85.15,66.125 75.16,-0.508 74.65,-58.621 75.16,-62.129 h -38.56 c -2.54,8.539 -5.03,29.066 -38.58,30.059 -16.53,0 -41.59,-5.516 -41.59,-25.028 0,-24.566 28.04,-28.054 57.61,-32.554 44.59,-8.543 70.14,-22.075 68.62,-63.125 -0.99,-36.067 -33.06,-65.133 -82.66,-65.133"
         style="fill:#808080;fill-opacity:1;fill-rule:nonzero;stroke:none"
         id="path60-0-9" />
    </g>
    <path
       style="fill:none;stroke:#808080;stroke-width:0.4;stroke-linecap:butt;stroke-linejoin:miter;stroke-miterlimit:4;stroke-dasharray:none;stroke-opacity:1"
       d="m -235.34133,-259.52584 c 0,24.94282 0,24.98264 0,24.98264"
       id="path840-8-0"
       inkscape:connector-curvature="0" />
    <g
       id="g1894-7-1"
       transform="matrix(0.10303355,0,0,0.1030334,-230.82736,-266.67467)"
       style="stroke:#000000;stroke-width:1.28396785;stroke-miterlimit:4;stroke-dasharray:none;stroke-opacity:1">
      <path
         inkscape:connector-curvature="0"
         style="color:#000000;display:inline;overflow:visible;visibility:visible;opacity:1;fill:url(#linearGradient3553);fill-opacity:1;fill-rule:nonzero;stroke:#000000;stroke-width:1.28396785;stroke-linecap:butt;stroke-linejoin:miter;stroke-miterlimit:4;stroke-dasharray:none;stroke-dashoffset:0;stroke-opacity:1;marker:none;marker-start:none;marker-mid:none;marker-end:none"
         d="M 99.75,67.46875 C 71.718268,67.468752 73.46875,79.625 73.46875,79.625 L 73.5,92.21875 h 26.75 V 96 H 62.875 c 0,0 -17.9375,-2.034276 -17.9375,26.25 -2e-6,28.28427 15.65625,27.28125 15.65625,27.28125 h 9.34375 v -13.125 c 0,0 -0.503652,-15.65625 15.40625,-15.65625 15.9099,0 26.53125,0 26.53125,0 0,0 14.90625,0.24096 14.90625,-14.40625 0,-14.647206 0,-24.21875 0,-24.21875 0,-2e-6 2.26318,-14.65625 -27.03125,-14.65625 z M 85,75.9375 c 2.661429,-2e-6 4.8125,2.151071 4.8125,4.8125 2e-6,2.661429 -2.151071,4.8125 -4.8125,4.8125 -2.661429,2e-6 -4.8125,-2.151071 -4.8125,-4.8125 -2e-6,-2.661429 2.151071,-4.8125 4.8125,-4.8125 z"
         id="path8615-3-9" />
      <path
         inkscape:connector-curvature="0"
         id="path8620-6-9"
         d="m 100.5461,177.31485 c 28.03174,0 26.28125,-12.15625 26.28125,-12.15625 l -0.0312,-12.59375 h -26.75 v -3.78125 h 37.375 c 0,0 17.9375,2.03427 17.9375,-26.25001 10e-6,-28.284267 -15.65625,-27.281247 -15.65625,-27.281247 h -9.34375 v 13.124997 c 0,0 0.50366,15.65625 -15.40625,15.65625 -15.909902,0 -26.531252,0 -26.531252,0 0,0 -14.90625,-0.24096 -14.90625,14.40626 0,14.6472 0,24.21875 0,24.21875 0,0 -2.26318,14.65625 27.031252,14.65625 z m 14.75,-8.46875 c -2.66143,0 -4.8125,-2.15107 -4.8125,-4.8125 0,-2.66143 2.15107,-4.8125 4.8125,-4.8125 2.66143,0 4.8125,2.15107 4.8125,4.8125 1e-5,2.66143 -2.15107,4.8125 -4.8125,4.8125 z"
         style="color:#000000;display:inline;overflow:visible;visibility:visible;opacity:1;fill:url(#linearGradient3555);fill-opacity:1;fill-rule:nonzero;stroke:#000000;stroke-width:1.28396785;stroke-linecap:butt;stroke-linejoin:miter;stroke-miterlimit:4;stroke-dasharray:none;stroke-dashoffset:0;stroke-opacity:1;marker:none;marker-start:none;marker-mid:none;marker-end:none" />
    </g>
  </g>
</svg>
