<?xml version="1.0" encoding="UTF-8" standalone="no"?>
<svg
   xmlns:dc="http://purl.org/dc/elements/1.1/"
   xmlns:cc="http://creativecommons.org/ns#"
   xmlns:rdf="http://www.w3.org/1999/02/22-rdf-syntax-ns#"
   xmlns:svg="http://www.w3.org/2000/svg"
   xmlns="http://www.w3.org/2000/svg"
   xmlns:xlink="http://www.w3.org/1999/xlink"
   xmlns:sodipodi="http://sodipodi.sourceforge.net/DTD/sodipodi-0.dtd"
   xmlns:inkscape="http://www.inkscape.org/namespaces/inkscape"
   viewBox="0 0 327.23965 114.25291"
   height="114.25291"
   width="327.23965"
   xml:space="preserve"
   id="svg2"
   version="1.1"
   sodipodi:docname="PyADI-IIO_Logo.svg"
   inkscape:version="0.92.4 (5da689c313, 2019-01-14)"
   inkscape:export-filename="/home/rgetz/GRbrochure/PyADI-IIO_logo.png"
   inkscape:export-xdpi="299.96609"
   inkscape:export-ydpi="299.96609"><sodipodi:namedview
   pagecolor="#ffffff"
   bordercolor="#666666"
   borderopacity="1"
   objecttolerance="10"
   gridtolerance="10"
   guidetolerance="10"
   inkscape:pageopacity="0"
   inkscape:pageshadow="2"
   inkscape:window-width="2040"
   inkscape:window-height="1577"
   id="namedview31"
   showgrid="false"
   inkscape:zoom="3.77"
   inkscape:cx="115.62638"
   inkscape:cy="51.2095"
   inkscape:window-x="90"
   inkscape:window-y="117"
   inkscape:window-maximized="0"
   inkscape:current-layer="svg2"
   fit-margin-top="10"
   fit-margin-left="10"
   fit-margin-right="10"
   fit-margin-bottom="10" /><metadata
   id="metadata8"><rdf:RDF><cc:Work
       rdf:about=""><dc:format>image/svg+xml</dc:format><dc:type
         rdf:resource="http://purl.org/dc/dcmitype/StillImage" /><dc:title></dc:title></cc:Work></rdf:RDF></metadata><defs
   id="defs6"><linearGradient
     id="linearGradient9515"
     inkscape:collect="always"><stop
       id="stop9517"
       offset="0"
       style="stop-color:#387eb8;stop-opacity:1" /><stop
       id="stop9519"
       offset="1"
       style="stop-color:#366994;stop-opacity:1" /></linearGradient><linearGradient
     id="linearGradient11301"
     inkscape:collect="always"><stop
       id="stop11303"
       offset="0"
       style="stop-color:#ffe052;stop-opacity:1" /><stop
       id="stop11305"
       offset="1"
       style="stop-color:#ffc331;stop-opacity:1" /></linearGradient><clipPath
     clipPathUnits="userSpaceOnUse"
     id="clipPath1569"><path
       sodipodi:type="star"
       style="fill:#ff8d34;fill-opacity:1;stroke:none;stroke-width:2.70379281;stroke-miterlimit:4;stroke-dasharray:none;stroke-dashoffset:0;stroke-opacity:1"
       id="path1571"
       sodipodi:sides="3"
       sodipodi:cx="275.0491"
       sodipodi:cy="32.110703"
       sodipodi:r1="36.121853"
       sodipodi:r2="18.060926"
       sodipodi:arg1="2.0971887"
       sodipodi:arg2="3.1443862"
       inkscape:flatsided="false"
       inkscape:rounded="0"
       inkscape:randomized="0"
       d="m 256.90086,63.342568 0.0874,-31.282319 0.0874,-31.28232153 27.04759,15.71684153 27.04758,15.716843 -27.13497,15.565478 z"
       inkscape:transform-center-x="-8.9867317"
       inkscape:transform-center-y="-0.050454989" /></clipPath><clipPath
     clipPathUnits="userSpaceOnUse"
     id="clipPath1620"><path
       sodipodi:type="star"
       style="fill:#ff8d34;fill-opacity:1;stroke:none;stroke-width:2.70379281;stroke-miterlimit:4;stroke-dasharray:none;stroke-dashoffset:0;stroke-opacity:1"
       id="path1622"
       sodipodi:sides="3"
       sodipodi:cx="275.0491"
       sodipodi:cy="32.110703"
       sodipodi:r1="36.121853"
       sodipodi:r2="18.060926"
       sodipodi:arg1="2.0971887"
       sodipodi:arg2="3.1443862"
       inkscape:flatsided="false"
       inkscape:rounded="0"
       inkscape:randomized="0"
       d="m 256.90086,63.342568 0.0874,-31.282319 0.0874,-31.28232153 27.04759,15.71684153 27.04758,15.716843 -27.13497,15.565478 z"
       inkscape:transform-center-x="-8.9867317"
       inkscape:transform-center-y="-0.050454989" /></clipPath><clipPath
     clipPathUnits="userSpaceOnUse"
     id="clipPath1620-8"><path
       sodipodi:type="star"
       style="fill:#ff8d34;fill-opacity:1;stroke:none;stroke-width:2.70379281;stroke-miterlimit:4;stroke-dasharray:none;stroke-dashoffset:0;stroke-opacity:1"
       id="path1622-9"
       sodipodi:sides="3"
       sodipodi:cx="275.0491"
       sodipodi:cy="32.110703"
       sodipodi:r1="36.121853"
       sodipodi:r2="18.060926"
       sodipodi:arg1="2.0971887"
       sodipodi:arg2="3.1443862"
       inkscape:flatsided="false"
       inkscape:rounded="0"
       inkscape:randomized="0"
       d="m 256.90086,63.342568 0.0874,-31.282319 0.0874,-31.28232153 27.04759,15.71684153 27.04758,15.716843 -27.13497,15.565478 z"
       inkscape:transform-center-x="-8.9867317"
       inkscape:transform-center-y="-0.050454989" /></clipPath><clipPath
     clipPathUnits="userSpaceOnUse"
     id="clipPath1569-5"><path
       sodipodi:type="star"
       style="fill:#ff8d34;fill-opacity:1;stroke:none;stroke-width:2.70379281;stroke-miterlimit:4;stroke-dasharray:none;stroke-dashoffset:0;stroke-opacity:1"
       id="path1571-7"
       sodipodi:sides="3"
       sodipodi:cx="275.0491"
       sodipodi:cy="32.110703"
       sodipodi:r1="36.121853"
       sodipodi:r2="18.060926"
       sodipodi:arg1="2.0971887"
       sodipodi:arg2="3.1443862"
       inkscape:flatsided="false"
       inkscape:rounded="0"
       inkscape:randomized="0"
       d="m 256.90086,63.342568 0.0874,-31.282319 0.0874,-31.28232153 27.04759,15.71684153 27.04758,15.716843 -27.13497,15.565478 z"
       inkscape:transform-center-x="-8.9867317"
       inkscape:transform-center-y="-0.050454989" /></clipPath><clipPath
     clipPathUnits="userSpaceOnUse"
     id="clipPath1820"><path
       sodipodi:type="star"
       style="fill:#ff8d34;fill-opacity:1;stroke:none;stroke-width:2.72260737;stroke-miterlimit:4;stroke-dasharray:none;stroke-dashoffset:0;stroke-opacity:1"
       id="path1822"
       sodipodi:sides="3"
       sodipodi:cx="268.05511"
       sodipodi:cy="32.444138"
       sodipodi:r1="36.373211"
       sodipodi:r2="18.186604"
       sodipodi:arg1="2.0971887"
       sodipodi:arg2="3.1443862"
       inkscape:flatsided="false"
       inkscape:rounded="0"
       inkscape:randomized="0"
       d="m 249.78058,63.893333 0.088,-31.5 0.088,-31.50000316 27.2358,15.82621116 27.2358,15.826209 -27.3238,15.673789 z"
       inkscape:transform-center-x="-9.0493335"
       inkscape:transform-center-y="-0.05080837"
       transform="matrix(1.0000073,0,0,1,7.2175949,0)" /></clipPath><clipPath
     clipPathUnits="userSpaceOnUse"
     id="clipPath1839"><path
       sodipodi:type="star"
       style="fill:#ff8d34;fill-opacity:1;stroke:none;stroke-width:2.72260737;stroke-miterlimit:4;stroke-dasharray:none;stroke-dashoffset:0;stroke-opacity:1"
       id="path1841"
       sodipodi:sides="3"
       sodipodi:cx="275.27454"
       sodipodi:cy="32.444138"
       sodipodi:r1="36.373211"
       sodipodi:r2="18.186604"
       sodipodi:arg1="2.0971887"
       sodipodi:arg2="3.1443862"
       inkscape:flatsided="false"
       inkscape:rounded="0"
       inkscape:randomized="0"
       d="m 257,63.893333 0.088,-31.5 0.088,-31.50000316 27.2358,15.82621116 27.23581,15.826209 -27.32381,15.673789 z"
       inkscape:transform-center-x="-9.049263"
       inkscape:transform-center-y="-0.05080837" /></clipPath><clipPath
     clipPathUnits="userSpaceOnUse"
     id="clipPath1839-3"><path
       sodipodi:type="star"
       style="fill:#ff8d34;fill-opacity:1;stroke:none;stroke-width:2.72260737;stroke-miterlimit:4;stroke-dasharray:none;stroke-dashoffset:0;stroke-opacity:1"
       id="path1841-0"
       sodipodi:sides="3"
       sodipodi:cx="275.27454"
       sodipodi:cy="32.444138"
       sodipodi:r1="36.373211"
       sodipodi:r2="18.186604"
       sodipodi:arg1="2.0971887"
       sodipodi:arg2="3.1443862"
       inkscape:flatsided="false"
       inkscape:rounded="0"
       inkscape:randomized="0"
       d="m 257,63.893333 0.088,-31.5 0.088,-31.50000316 27.2358,15.82621116 27.23581,15.826209 -27.32381,15.673789 z"
       inkscape:transform-center-x="-9.049263"
       inkscape:transform-center-y="-0.05080837" /></clipPath><clipPath
     clipPathUnits="userSpaceOnUse"
     id="clipPath1820-5"><path
       sodipodi:type="star"
       style="fill:#ff8d34;fill-opacity:1;stroke:none;stroke-width:2.72260737;stroke-miterlimit:4;stroke-dasharray:none;stroke-dashoffset:0;stroke-opacity:1"
       id="path1822-3"
       sodipodi:sides="3"
       sodipodi:cx="268.05511"
       sodipodi:cy="32.444138"
       sodipodi:r1="36.373211"
       sodipodi:r2="18.186604"
       sodipodi:arg1="2.0971887"
       sodipodi:arg2="3.1443862"
       inkscape:flatsided="false"
       inkscape:rounded="0"
       inkscape:randomized="0"
       d="m 249.78058,63.893333 0.088,-31.5 0.088,-31.50000316 27.2358,15.82621116 27.2358,15.826209 -27.3238,15.673789 z"
       inkscape:transform-center-x="-9.0493335"
       inkscape:transform-center-y="-0.05080837"
       transform="matrix(1.0000073,0,0,1,7.2175949,0)" /></clipPath><clipPath
     clipPathUnits="userSpaceOnUse"
     id="clipPath1839-9"><path
       sodipodi:type="star"
       style="fill:#ff8d34;fill-opacity:1;stroke:none;stroke-width:2.72260737;stroke-miterlimit:4;stroke-dasharray:none;stroke-dashoffset:0;stroke-opacity:1"
       id="path1841-9"
       sodipodi:sides="3"
       sodipodi:cx="275.27454"
       sodipodi:cy="32.444138"
       sodipodi:r1="36.373211"
       sodipodi:r2="18.186604"
       sodipodi:arg1="2.0971887"
       sodipodi:arg2="3.1443862"
       inkscape:flatsided="false"
       inkscape:rounded="0"
       inkscape:randomized="0"
       d="m 257,63.893333 0.088,-31.5 0.088,-31.50000316 27.2358,15.82621116 27.23581,15.826209 -27.32381,15.673789 z"
       inkscape:transform-center-x="-9.049263"
       inkscape:transform-center-y="-0.05080837" /></clipPath><clipPath
     clipPathUnits="userSpaceOnUse"
     id="clipPath1820-8"><path
       sodipodi:type="star"
       style="fill:#ff8d34;fill-opacity:1;stroke:none;stroke-width:2.72260737;stroke-miterlimit:4;stroke-dasharray:none;stroke-dashoffset:0;stroke-opacity:1"
       id="path1822-2"
       sodipodi:sides="3"
       sodipodi:cx="268.05511"
       sodipodi:cy="32.444138"
       sodipodi:r1="36.373211"
       sodipodi:r2="18.186604"
       sodipodi:arg1="2.0971887"
       sodipodi:arg2="3.1443862"
       inkscape:flatsided="false"
       inkscape:rounded="0"
       inkscape:randomized="0"
       d="m 249.78058,63.893333 0.088,-31.5 0.088,-31.50000316 27.2358,15.82621116 27.2358,15.826209 -27.3238,15.673789 z"
       inkscape:transform-center-x="-9.0493335"
       inkscape:transform-center-y="-0.05080837"
       transform="matrix(1.0000073,0,0,1,7.2175949,0)" /></clipPath><clipPath
     clipPathUnits="userSpaceOnUse"
     id="clipPath1839-9-2"><path
       sodipodi:type="star"
       style="fill:#ff8d34;fill-opacity:1;stroke:none;stroke-width:2.72260737;stroke-miterlimit:4;stroke-dasharray:none;stroke-dashoffset:0;stroke-opacity:1"
       id="path1841-9-9"
       sodipodi:sides="3"
       sodipodi:cx="275.27454"
       sodipodi:cy="32.444138"
       sodipodi:r1="36.373211"
       sodipodi:r2="18.186604"
       sodipodi:arg1="2.0971887"
       sodipodi:arg2="3.1443862"
       inkscape:flatsided="false"
       inkscape:rounded="0"
       inkscape:randomized="0"
       d="m 257,63.893333 0.088,-31.5 0.088,-31.50000316 27.2358,15.82621116 27.23581,15.826209 -27.32381,15.673789 z"
       inkscape:transform-center-x="-9.049263"
       inkscape:transform-center-y="-0.05080837" /></clipPath><clipPath
     clipPathUnits="userSpaceOnUse"
     id="clipPath1820-8-9"><path
       sodipodi:type="star"
       style="fill:#ff8d34;fill-opacity:1;stroke:none;stroke-width:2.72260737;stroke-miterlimit:4;stroke-dasharray:none;stroke-dashoffset:0;stroke-opacity:1"
       id="path1822-2-7"
       sodipodi:sides="3"
       sodipodi:cx="268.05511"
       sodipodi:cy="32.444138"
       sodipodi:r1="36.373211"
       sodipodi:r2="18.186604"
       sodipodi:arg1="2.0971887"
       sodipodi:arg2="3.1443862"
       inkscape:flatsided="false"
       inkscape:rounded="0"
       inkscape:randomized="0"
       d="m 249.78058,63.893333 0.088,-31.5 0.088,-31.50000316 27.2358,15.82621116 27.2358,15.826209 -27.3238,15.673789 z"
       inkscape:transform-center-x="-9.0493335"
       inkscape:transform-center-y="-0.05080837"
       transform="matrix(1.0000073,0,0,1,7.2175949,0)" /></clipPath><clipPath
     clipPathUnits="userSpaceOnUse"
     id="clipPath1839-6"><path
       sodipodi:type="star"
       style="fill:#ff8d34;fill-opacity:1;stroke:none;stroke-width:2.72260737;stroke-miterlimit:4;stroke-dasharray:none;stroke-dashoffset:0;stroke-opacity:1"
       id="path1841-2"
       sodipodi:sides="3"
       sodipodi:cx="275.27454"
       sodipodi:cy="32.444138"
       sodipodi:r1="36.373211"
       sodipodi:r2="18.186604"
       sodipodi:arg1="2.0971887"
       sodipodi:arg2="3.1443862"
       inkscape:flatsided="false"
       inkscape:rounded="0"
       inkscape:randomized="0"
       d="m 257,63.893333 0.088,-31.5 0.088,-31.50000316 27.2358,15.82621116 27.23581,15.826209 -27.32381,15.673789 z"
       inkscape:transform-center-x="-9.049263"
       inkscape:transform-center-y="-0.05080837" /></clipPath><clipPath
     clipPathUnits="userSpaceOnUse"
     id="clipPath1820-4"><path
       sodipodi:type="star"
       style="fill:#ff8d34;fill-opacity:1;stroke:none;stroke-width:2.72260737;stroke-miterlimit:4;stroke-dasharray:none;stroke-dashoffset:0;stroke-opacity:1"
       id="path1822-7"
       sodipodi:sides="3"
       sodipodi:cx="268.05511"
       sodipodi:cy="32.444138"
       sodipodi:r1="36.373211"
       sodipodi:r2="18.186604"
       sodipodi:arg1="2.0971887"
       sodipodi:arg2="3.1443862"
       inkscape:flatsided="false"
       inkscape:rounded="0"
       inkscape:randomized="0"
       d="m 249.78058,63.893333 0.088,-31.5 0.088,-31.50000316 27.2358,15.82621116 27.2358,15.826209 -27.3238,15.673789 z"
       inkscape:transform-center-x="-9.0493335"
       inkscape:transform-center-y="-0.05080837"
       transform="matrix(1.0000073,0,0,1,7.2175949,0)" /></clipPath><linearGradient
     inkscape:collect="always"
     xlink:href="#linearGradient9515"
     id="linearGradient3553"
     gradientUnits="userSpaceOnUse"
     x1="55.549179"
     y1="77.070274"
     x2="110.14919"
     y2="131.85291" /><linearGradient
     inkscape:collect="always"
     xlink:href="#linearGradient11301"
     id="linearGradient3555"
     gradientUnits="userSpaceOnUse"
     x1="89.136749"
     y1="111.92053"
     x2="147.77737"
     y2="168.1012" /></defs>
<text
   xml:space="preserve"
   style="font-style:normal;font-weight:normal;font-size:40px;line-height:1.25;font-family:sans-serif;letter-spacing:0px;word-spacing:0px;fill:#000000;fill-opacity:1;stroke:none"
   x="381.23044"
   y="-67.023994"
   id="text847"><tspan
     sodipodi:role="line"
     id="tspan845"
     x="381.23044"
     y="-31.633366" /></text>








<path
   sodipodi:type="star"
   style="fill:#ff8d34;fill-opacity:1;stroke:none;stroke-width:2.72260737;stroke-miterlimit:4;stroke-dasharray:none;stroke-dashoffset:0;stroke-opacity:1"
   id="path888-5"
   sodipodi:sides="3"
   sodipodi:cx="28.579489"
   sodipodi:cy="41.621303"
   sodipodi:r1="36.373211"
   sodipodi:r2="18.186604"
   sodipodi:arg1="2.0971887"
   sodipodi:arg2="3.1443862"
   inkscape:flatsided="false"
   inkscape:rounded="0"
   inkscape:randomized="0"
   d="m 10.304956,73.070499 0.088,-31.5 0.088,-31.500003 27.235801,15.826211 27.235804,15.826209 -27.323801,15.673789 z"
   inkscape:transform-center-x="-9.049263"
   inkscape:transform-center-y="-0.05080837" /><path
   style="font-style:normal;font-variant:normal;font-weight:500;font-stretch:normal;font-size:63.9896431px;line-height:1.25;font-family:AzbukaW01-Medium;-inkscape-font-specification:'AzbukaW01-Medium, Medium';font-variant-ligatures:normal;font-variant-caps:normal;font-variant-numeric:normal;font-feature-settings:normal;text-align:start;letter-spacing:0px;word-spacing:0px;writing-mode:lr-tb;text-anchor:start;fill:#000000;fill-opacity:1;stroke:none;stroke-width:1.59972918"
   d="M 71.279297 27.306641 L 71.279297 72.861328 L 78.310547 72.861328 L 78.310547 62.541016 L 78.273438 62.541016 L 78.273438 41.019531 L 78.310547 41.019531 L 78.310547 33.244141 L 87.808594 33.244141 C 88.954242 33.244141 89.975406 33.471428 90.871094 33.929688 C 91.766782 34.387947 92.515072 35.023569 93.119141 35.835938 C 93.74404 36.627476 94.212941 37.554859 94.525391 38.617188 C 94.85867 39.658686 95.025391 40.77363 95.025391 41.960938 C 95.025391 43.606505 94.75447 44.990416 94.212891 46.115234 C 93.671312 47.219222 92.985542 48.104926 92.152344 48.771484 C 91.319145 49.438043 90.402182 49.917365 89.402344 50.208984 C 88.402506 50.500604 87.443862 50.646484 86.527344 50.646484 L 85.152344 50.646484 L 85.152344 56.615234 L 88.683594 56.615234 C 90.62078 56.615234 92.411073 56.271373 94.056641 55.583984 C 95.723037 54.875766 97.161003 53.885862 98.369141 52.615234 C 99.577278 51.344606 100.5255 49.812861 101.21289 48.021484 C 101.90028 46.209278 102.24414 44.189744 102.24414 41.960938 C 102.24414 39.732132 101.93154 37.721065 101.30664 35.929688 C 100.70257 34.117481 99.816872 32.577268 98.650391 31.306641 C 97.483913 30.015183 96.056367 29.025279 94.369141 28.337891 C 92.702744 27.650502 90.80825 27.306641 88.683594 27.306641 L 71.279297 27.306641 z "
   id="path3593" /><path
   inkscape:connector-curvature="0"
   id="path3595"
   style="font-style:normal;font-variant:normal;font-weight:500;font-stretch:normal;font-size:63.9896431px;line-height:1.25;font-family:AzbukaW01-Medium;-inkscape-font-specification:'AzbukaW01-Medium, Medium';font-variant-ligatures:normal;font-variant-caps:normal;font-variant-numeric:normal;font-feature-settings:normal;text-align:start;letter-spacing:0px;word-spacing:0px;writing-mode:lr-tb;text-anchor:start;fill:#000000;fill-opacity:1;stroke:none;stroke-width:1.59972918"
   d="m 105.71181,78.892037 q 0.56241,0.281204 1.21856,0.499919 0.56241,0.18747 1.28104,0.343694 0.71863,0.156225 1.531,0.156225 1.06233,0 1.84345,-0.281204 0.81237,-0.281205 1.46852,-0.968594 0.65614,-0.687388 1.24979,-1.843451 0.6249,-1.156063 1.34354,-2.90578 0.24996,-0.531164 0.43742,-1.093573 0.21872,-0.593654 0.49992,-1.218553 L 104.43077,39.835858 h 7.18634 l 8.12368,23.558687 q 0.74988,-1.999676 1.49976,-4.093087 0.78112,-2.093411 1.49976,-4.124333 0.74988,-2.030921 1.43727,-3.936862 0.68738,-1.937187 1.31228,-3.655659 1.43727,-3.999353 2.74956,-7.748746 h 6.90513 L 121.2718,76.173727 q -0.78113,1.999676 -1.68723,3.655658 -0.9061,1.687227 -2.18715,2.90578 -1.2498,1.218553 -2.93702,1.905941 -1.68723,0.687389 -3.99935,0.687389 -1.31229,0 -2.43711,-0.187469 -1.09357,-0.156225 -1.96843,-0.37494 -1.03108,-0.249959 -1.8747,-0.593654 z" /><path
   style="font-style:normal;font-variant:normal;font-weight:500;font-stretch:normal;font-size:63.9896431px;line-height:1.25;font-family:AzbukaW01-Medium;-inkscape-font-specification:'AzbukaW01-Medium, Medium';font-variant-ligatures:normal;font-variant-caps:normal;font-variant-numeric:normal;font-feature-settings:normal;text-align:start;letter-spacing:0px;word-spacing:0px;writing-mode:lr-tb;text-anchor:start;fill:#000000;fill-opacity:1;stroke:none;stroke-width:1.59972918"
   d="M 150.86133 27.306641 L 135.42578 72.861328 L 142.92383 72.861328 L 146.42383 61.925781 L 146.47656 61.925781 L 150.20312 50.46875 L 154.70312 36.585938 L 160.45312 55.958984 L 155.65039 55.958984 L 153.71094 61.925781 L 162.17188 61.925781 L 165.45117 72.861328 L 173.04492 72.861328 L 158.51562 27.306641 L 150.86133 27.306641 z "
   id="path3597" /><path
   inkscape:connector-curvature="0"
   id="path3599"
   style="font-style:normal;font-variant:normal;font-weight:500;font-stretch:normal;font-size:63.9896431px;line-height:1.25;font-family:AzbukaW01-Medium;-inkscape-font-specification:'AzbukaW01-Medium, Medium';font-variant-ligatures:normal;font-variant-caps:normal;font-variant-numeric:normal;font-feature-settings:normal;text-align:start;letter-spacing:0px;word-spacing:0px;writing-mode:lr-tb;text-anchor:start;fill:#000000;fill-opacity:1;stroke:none;stroke-width:1.59972918"
   d="m 195.63476,66.925224 q 2.12466,0 3.43694,-0.562409 1.31229,-0.593654 2.12466,-1.749717 0.46868,-0.624899 0.78112,-1.499757 0.31245,-0.874859 0.53117,-2.468351 0.21871,-1.593492 0.31245,-4.124332 0.0937,-2.530841 0.0937,-6.436458 0,-3.905618 -0.0937,-6.436459 -0.0937,-2.53084 -0.31245,-4.124332 -0.21872,-1.593492 -0.53117,-2.468351 -0.31244,-0.874858 -0.78112,-1.499757 -0.81237,-1.156063 -2.12466,-1.718472 -1.31228,-0.593654 -3.43694,-0.593654 h -11.21693 v 33.682049 z m -18.24705,5.936539 V 27.306636 h 18.12207 q 1.90594,0 3.46819,0.281205 1.59349,0.249959 2.87453,0.749878 1.31229,0.499919 2.37462,1.187308 1.06233,0.687389 1.96843,1.562247 1.12482,1.093573 1.8747,2.71831 0.78112,1.593492 1.21855,3.905618 0.46868,2.280881 0.65615,5.342885 0.21871,3.062005 0.21871,7.030113 0,3.968107 -0.21871,7.030112 -0.18747,3.062004 -0.65615,5.37413 -0.43743,2.280881 -1.21855,3.905618 -0.74988,1.624737 -1.8747,2.687065 -0.9061,0.874858 -1.96843,1.593492 -1.06233,0.687389 -2.37462,1.187308 -1.28104,0.468674 -2.87453,0.749878 -1.56225,0.24996 -3.46819,0.24996 z" /><path
   inkscape:connector-curvature="0"
   id="path3601"
   style="font-style:normal;font-variant:normal;font-weight:500;font-stretch:normal;font-size:63.9896431px;line-height:1.25;font-family:AzbukaW01-Medium;-inkscape-font-specification:'AzbukaW01-Medium, Medium';font-variant-ligatures:normal;font-variant-caps:normal;font-variant-numeric:normal;font-feature-settings:normal;text-align:start;letter-spacing:0px;word-spacing:0px;writing-mode:lr-tb;text-anchor:start;fill:#000000;fill-opacity:1;stroke:none;stroke-width:1.59972918"
   d="M 218.13113,72.861763 V 27.306636 h 7.06135 v 45.555127 z" /><path
   inkscape:connector-curvature="0"
   id="path3603"
   style="font-style:normal;font-variant:normal;font-weight:300;font-stretch:normal;font-size:63.98933411px;line-height:1.25;font-family:AzbukaW01-Light;-inkscape-font-specification:'AzbukaW01-Light, Light';font-variant-ligatures:normal;font-variant-caps:normal;font-variant-numeric:normal;font-feature-settings:normal;text-align:start;letter-spacing:0px;word-spacing:0px;writing-mode:lr-tb;text-anchor:start;fill:#000000;fill-opacity:1;stroke:none;stroke-width:1.59972918"
   d="m 232.78499,57.895508 v -3.155724 h 16.77845 v 3.155724 z" /><path
   inkscape:connector-curvature="0"
   id="path3605"
   style="font-style:normal;font-variant:normal;font-weight:300;font-stretch:normal;font-size:63.98933411px;line-height:1.25;font-family:AzbukaW01-Light;-inkscape-font-specification:'AzbukaW01-Light, Light';font-variant-ligatures:normal;font-variant-caps:normal;font-variant-numeric:normal;font-feature-settings:normal;text-align:start;letter-spacing:0px;word-spacing:0px;writing-mode:lr-tb;text-anchor:start;fill:#000000;fill-opacity:1;stroke:none;stroke-width:1.59972918"
   d="M 257.53086,72.861763 V 27.306856 h 3.43693 v 45.554907 z" /><path
   inkscape:connector-curvature="0"
   id="path3607"
   style="font-style:normal;font-variant:normal;font-weight:300;font-stretch:normal;font-size:63.98933411px;line-height:1.25;font-family:AzbukaW01-Light;-inkscape-font-specification:'AzbukaW01-Light, Light';font-variant-ligatures:normal;font-variant-caps:normal;font-variant-numeric:normal;font-feature-settings:normal;text-align:start;letter-spacing:0px;word-spacing:0px;writing-mode:lr-tb;text-anchor:start;fill:#000000;fill-opacity:1;stroke:none;stroke-width:1.59972918"
   d="M 270.5287,72.861763 V 27.306856 h 3.43692 v 45.554907 z" /><path
   inkscape:connector-curvature="0"
   id="path3609"
   style="font-style:normal;font-variant:normal;font-weight:300;font-stretch:normal;font-size:63.98933411px;line-height:1.25;font-family:AzbukaW01-Light;-inkscape-font-specification:'AzbukaW01-Light, Light';font-variant-ligatures:normal;font-variant-caps:normal;font-variant-numeric:normal;font-feature-settings:normal;text-align:start;letter-spacing:0px;word-spacing:0px;writing-mode:lr-tb;text-anchor:start;fill:#000000;fill-opacity:1;stroke:none;stroke-width:1.59972918"
   d="m 313.39655,69.081143 q -0.9061,0.968589 -2.0934,1.749709 -1.1873,0.749875 -2.78079,1.312281 -1.56224,0.531161 -3.62439,0.812364 -2.06216,0.281204 -4.74921,0.281204 -2.68705,0 -4.74921,-0.281204 -2.06216,-0.281203 -3.65564,-0.812364 -1.56224,-0.562406 -2.74954,-1.312281 -1.1873,-0.78112 -2.0934,-1.749709 -1.06233,-1.093568 -1.8122,-2.718297 -0.71863,-1.624729 -1.1873,-3.905599 -0.43743,-2.312114 -0.65614,-5.342859 -0.18747,-3.06199 -0.18747,-7.030078 0,-3.968089 0.18747,-6.998834 0.21871,-3.061989 0.65614,-5.342859 0.46867,-2.312115 1.1873,-3.936844 0.74987,-1.624729 1.8122,-2.718297 0.9061,-0.968589 2.0934,-1.718464 1.1873,-0.781119 2.74954,-1.312281 1.59348,-0.531161 3.65564,-0.812364 2.06216,-0.312448 4.74921,-0.312448 2.68705,0 4.74921,0.312448 2.06215,0.281203 3.62439,0.812364 1.59349,0.531162 2.78079,1.312281 1.1873,0.749875 2.0934,1.718464 1.06232,1.093568 1.78095,2.718297 0.74988,1.624729 1.18731,3.936844 0.46867,2.28087 0.65614,5.342859 0.21871,3.030745 0.21871,6.998834 0,3.968088 -0.21871,7.030078 -0.18747,3.030745 -0.65614,5.342859 -0.43743,2.28087 -1.18731,3.905599 -0.71863,1.624729 -1.78095,2.718297 z m -2.3746,-2.312114 q 0.65614,-0.718631 1.15605,-1.749709 0.49992,-1.031078 0.84361,-2.874521 0.37494,-1.843442 0.56241,-4.717963 0.18747,-2.905766 0.18747,-7.342526 0,-4.436761 -0.18747,-7.311282 -0.18747,-2.905765 -0.56241,-4.749208 -0.34369,-1.843443 -0.84361,-2.874521 -0.49991,-1.062323 -1.15605,-1.780953 -0.74988,-0.84361 -1.68722,-1.468505 -0.93735,-0.624896 -2.24963,-1.031079 -1.28103,-0.437427 -2.9995,-0.65614 -1.68722,-0.218714 -3.93684,-0.218714 -2.24963,0 -3.96809,0.218714 -1.68722,0.218713 -2.9995,0.65614 -1.28104,0.406183 -2.21838,1.031079 -0.93734,0.624895 -1.68722,1.468505 -0.65614,0.71863 -1.15606,1.780953 -0.49991,1.031078 -0.87485,2.874521 -0.34369,1.843443 -0.53116,4.749208 -0.18747,2.874521 -0.18747,7.311282 0,4.43676 0.18747,7.342526 0.18747,2.874521 0.53116,4.717963 0.37494,1.843443 0.87485,2.874521 0.49992,1.031078 1.15606,1.749709 0.74988,0.843609 1.68722,1.49975 0.93734,0.624895 2.21838,1.062322 1.31228,0.406183 2.9995,0.624896 1.71846,0.218714 3.96809,0.218714 2.24962,0 3.93684,-0.218714 1.71847,-0.218713 2.9995,-0.624896 1.31228,-0.437427 2.24963,-1.062322 0.93734,-0.656141 1.68722,-1.49975 z" /><text
   xml:space="preserve"
   style="font-style:normal;font-weight:normal;font-size:16.79272652px;line-height:1.25;font-family:sans-serif;letter-spacing:0px;word-spacing:0px;fill:#000000;fill-opacity:1;stroke:none;stroke-width:0.4198181"
   x="8.8930578"
   y="103.27715"
   id="text1626-0"><tspan
     sodipodi:role="line"
     id="tspan1624-8"
     x="8.8930578"
     y="103.27715"
     style="font-style:normal;font-variant:normal;font-weight:500;font-stretch:normal;font-size:16.79272652px;font-family:AzbukaW01-Medium;-inkscape-font-specification:'AzbukaW01-Medium, Medium';font-variant-ligatures:normal;font-variant-caps:normal;font-variant-numeric:normal;font-feature-settings:normal;text-align:start;writing-mode:lr-tb;text-anchor:start;stroke-width:0.4198181">PYTHON FOR ADI INDUSTRIAL I/O DEVICES</tspan></text>
<ellipse
   style="fill:#ffffff;fill-opacity:1;stroke:none;stroke-width:0.58899999;stroke-miterlimit:4;stroke-dasharray:none;stroke-dashoffset:0;stroke-opacity:1"
   id="path3557"
   cx="41.970177"
   cy="47.66325"
   rx="2.8571429"
   ry="2.6007326" /><ellipse
   style="fill:#ffffff;fill-opacity:1;stroke:none;stroke-width:0.58899999;stroke-miterlimit:4;stroke-dasharray:none;stroke-dashoffset:0;stroke-opacity:1"
   id="path3557-2"
   cx="29.955496"
   cy="15.392193"
   rx="2.8571429"
   ry="2.6007326" /><g
   id="g1894-7-1"
   transform="matrix(0.38941815,0,0,0.38941756,-3.1945141,-15.979016)"
   style="stroke:#000000;stroke-width:1.51251411;stroke-miterlimit:4;stroke-dasharray:none;stroke-opacity:1"><path
     inkscape:connector-curvature="0"
     style="color:#000000;display:inline;overflow:visible;visibility:visible;opacity:1;fill:url(#linearGradient3553);fill-opacity:1;fill-rule:nonzero;stroke:#000000;stroke-width:1.51251411;stroke-linecap:butt;stroke-linejoin:miter;stroke-miterlimit:4;stroke-dasharray:none;stroke-dashoffset:0;stroke-opacity:1;marker:none;marker-start:none;marker-mid:none;marker-end:none"
     d="M 99.75,67.46875 C 71.718268,67.468752 73.46875,79.625 73.46875,79.625 L 73.5,92.21875 h 26.75 V 96 H 62.875 c 0,0 -17.9375,-2.034276 -17.9375,26.25 -2e-6,28.28427 15.65625,27.28125 15.65625,27.28125 h 9.34375 v -13.125 c 0,0 -0.503652,-15.65625 15.40625,-15.65625 15.9099,0 26.53125,0 26.53125,0 0,0 14.90625,0.24096 14.90625,-14.40625 0,-14.647206 0,-24.21875 0,-24.21875 0,-2e-6 2.26318,-14.65625 -27.03125,-14.65625 z M 85,75.9375 c 2.661429,-2e-6 4.8125,2.151071 4.8125,4.8125 2e-6,2.661429 -2.151071,4.8125 -4.8125,4.8125 -2.661429,2e-6 -4.8125,-2.151071 -4.8125,-4.8125 -2e-6,-2.661429 2.151071,-4.8125 4.8125,-4.8125 z"
     id="path8615-3-9" /><path
     inkscape:connector-curvature="0"
     id="path8620-6-9"
     d="m 100.5461,177.31485 c 28.03174,0 26.28125,-12.15625 26.28125,-12.15625 l -0.0312,-12.59375 h -26.75 v -3.78125 h 37.375 c 0,0 17.9375,2.03427 17.9375,-26.25001 10e-6,-28.284267 -15.65625,-27.281247 -15.65625,-27.281247 h -9.34375 v 13.124997 c 0,0 0.50366,15.65625 -15.40625,15.65625 -15.909902,0 -26.531252,0 -26.531252,0 0,0 -14.90625,-0.24096 -14.90625,14.40626 0,14.6472 0,24.21875 0,24.21875 0,0 -2.26318,14.65625 27.031252,14.65625 z m 14.75,-8.46875 c -2.66143,0 -4.8125,-2.15107 -4.8125,-4.8125 0,-2.66143 2.15107,-4.8125 4.8125,-4.8125 2.66143,0 4.8125,2.15107 4.8125,4.8125 1e-5,2.66143 -2.15107,4.8125 -4.8125,4.8125 z"
     style="color:#000000;display:inline;overflow:visible;visibility:visible;opacity:1;fill:url(#linearGradient3555);fill-opacity:1;fill-rule:nonzero;stroke:#000000;stroke-width:1.51251411;stroke-linecap:butt;stroke-linejoin:miter;stroke-miterlimit:4;stroke-dasharray:none;stroke-dashoffset:0;stroke-opacity:1;marker:none;marker-start:none;marker-mid:none;marker-end:none" /></g></svg>
